<svg width="188" height="15" viewBox="0 0 188 15" fill="none" xmlns="http://www.w3.org/2000/svg">
<g clip-path="url(#clip0_401_734)">
<path d="M6.22028 0.3125H6.58275L13.0296 14.6808H10.4146L9.9696 13.4774C9.92105 13.3397 9.71393 12.8473 9.35145 11.9986L8.50191 9.97722H3.07292L1.04696 14.6824H0L6.22028 0.3125ZM8.21549 9.21111L5.84001 3.53731L3.39494 9.21111H8.21711H8.21549Z" fill="black"/>
<path d="M17.6606 0.632812H18.706L27.2856 11.1673V0.632812H28.1966V14.9088H27.8228L18.5717 3.60009V14.6804H17.6606V0.632812Z" fill="black"/>
<path d="M38.9543 0.3125H39.3168L45.7636 14.6808H43.1486L42.7036 13.4774C42.6551 13.3397 42.448 12.8473 42.0855 11.9986L41.236 9.97722H35.807L33.781 14.6824H32.7324L38.9543 0.3125ZM40.9495 9.21111L38.574 3.53731L36.129 9.21111H40.9512H40.9495Z" fill="black"/>
<path d="M56.7527 0.632812H57.798L66.3776 11.1673V0.632812H67.2886V14.9088H66.9148L57.6637 3.60009V14.6804H56.7527V0.632812Z" fill="black"/>
<path d="M81.8864 14.6804H73.0576V0.632812H81.8864V1.39893H75.0658V6.95286H80.7585V7.70926H75.0658V12.34C75.0658 12.8243 75.069 13.0899 75.0755 13.1369C75.1176 13.4608 75.2373 13.6795 75.438 13.7896C75.5755 13.8722 75.8376 13.9143 76.2244 13.9143H81.8864V14.6804Z" fill="black"/>
<path d="M87.1277 0.632812H88.173L96.7526 11.1673V0.632812H97.6636V14.9088H97.2898L88.0387 3.60009V14.6804H87.1277V0.632812Z" fill="black"/>
<path d="M108.421 0.3125H108.784L115.23 14.6808H112.615L112.17 13.4774C112.122 13.3397 111.915 12.8473 111.552 11.9986L110.703 9.97722H105.274L103.248 14.6824H102.199L108.421 0.3125ZM110.416 9.21111L108.041 3.53731L105.596 9.21111H110.418H110.416Z" fill="black"/>
<path d="M119.758 0.632812H123.453C125.26 0.632812 126.665 0.802881 127.665 1.13978C129.051 1.60301 130.124 2.46631 130.883 3.72967C131.545 4.8424 131.877 6.12682 131.877 7.58293C131.877 9.54438 131.283 11.177 130.097 12.4825C128.771 13.9467 126.744 14.6788 124.011 14.6788H119.757V0.632812H119.758ZM121.745 13.6552C122.622 13.8479 123.357 13.9451 123.949 13.9451C125.687 13.9451 127.068 13.3247 128.089 12.0824C129.04 10.9292 129.517 9.46339 129.517 7.68335C129.517 5.9033 129.038 4.38889 128.079 3.24214C127.051 2.02737 125.647 1.41998 123.867 1.41998C123.245 1.41998 122.538 1.52041 121.745 1.71963V13.6552Z" fill="black"/>
<path d="M141.507 0.3125C143.445 0.3125 145.067 1.0446 146.371 2.50881C147.62 3.91794 148.245 5.60567 148.245 7.57521C148.245 9.54476 147.61 11.3523 146.34 12.7761C145.023 14.2613 143.356 15.0031 141.342 15.0031C139.327 15.0031 137.626 14.2743 136.343 12.8166C135.115 11.422 134.501 9.68406 134.501 7.60599C134.501 5.37567 135.26 3.55513 136.778 2.146C138.095 0.923125 139.673 0.3125 141.508 0.3125H141.507ZM141.311 1.0689C140.055 1.0689 139.047 1.53537 138.288 2.4667C137.343 3.6264 136.87 5.32546 136.87 7.56388C136.87 9.8023 137.361 11.6277 138.34 12.857C139.086 13.7965 140.079 14.2662 141.32 14.2662C142.956 14.2662 144.164 13.5681 144.944 12.1735C145.565 11.0689 145.876 9.62899 145.876 7.8538C145.876 5.96848 145.583 4.45568 144.995 3.31704C144.23 1.81882 143.002 1.0689 141.311 1.0689Z" fill="black"/>
<path d="M158.164 15.0011H157.78L151.539 0.632812H153.649L158.528 11.8136L163.073 0.634432H164.104L158.164 15.0011Z" fill="black"/>
<path d="M171.001 14.6804H169.014V0.632812H171.001V14.6804Z" fill="black"/>
<path d="M187.72 3.45805L187.4 3.66537C186.565 2.50081 185.799 1.72498 185.102 1.33625C184.385 0.934564 183.574 0.733722 182.67 0.733722C180.627 0.733722 179.195 1.72498 178.375 3.7091C177.94 4.74571 177.723 6.03499 177.723 7.57694C177.723 10.217 178.54 12.0343 180.176 13.0304C180.99 13.5277 181.922 13.7771 182.971 13.7771C184.019 13.7771 184.937 13.5115 185.704 12.9802C186.304 12.5656 186.963 11.861 187.681 10.8665L188.002 11.0739C186.642 13.484 184.707 14.689 182.195 14.689C179.87 14.689 178.069 13.8257 176.792 12.0991C175.841 10.8147 175.364 9.30191 175.364 7.56236C175.364 6.19534 175.66 4.93521 176.254 3.78199C176.881 2.5737 177.765 1.63427 178.902 0.963719C180 0.3207 181.2 0 182.505 0C183.56 0 184.477 0.238095 185.257 0.714286C186.196 1.29414 187.016 2.20926 187.72 3.45967V3.45805Z" fill="black"/>
</g>
<defs>
<clipPath id="clip0_401_734">
<rect width="188" height="15" fill="white"/>
</clipPath>
</defs>
</svg>
