<svg width="95" height="57" viewBox="0 0 95 57" fill="none" xmlns="http://www.w3.org/2000/svg">
<path d="M73.6746 18.2414L77.1211 24.3906H73.6746V18.2414ZM77.1211 18.2414H73.6746L77.1211 24.3906V18.2414Z" fill="black"/>
<path d="M53.5505 18.3064L56.9971 24.3906H53.5505V18.3064ZM56.9971 18.3064H53.5505L56.9971 24.3906V18.3064Z" fill="black"/>
<path d="M73.6746 24.39L87.3171 27.0625H73.6746V24.39ZM87.3171 24.39H73.6746L87.3171 27.0625V24.39Z" fill="black"/>
<path d="M53.5506 24.39L67.1835 27.0625H53.5506V24.39ZM67.1931 24.39H53.5506L67.1835 27.0625L67.1931 24.39Z" fill="black"/>
<path d="M38.2517 24.39L51.8943 27.0625H38.2517V24.39ZM51.8943 24.39H38.2517L51.8943 27.0625V24.39Z" fill="black"/>
<path d="M22.9532 24.39L36.5957 27.0625H22.9532V24.39ZM36.5957 24.39H22.9532L36.5957 27.0625V24.39Z" fill="black"/>
<path d="M7.70218 24.39L21.3447 27.0625H7.70218V24.39ZM21.3447 24.39H7.70218L21.3447 27.0625V24.39Z" fill="black"/>
<path d="M17.8982 27.0617L21.3447 28.4102H17.8982V27.0617ZM21.3447 27.0617H17.8982L21.3447 28.4102V27.0617Z" fill="black"/>
<path d="M7.70218 28.4107L21.3447 31.5625H7.70218V28.4107ZM21.3447 28.4107H7.70218L21.3447 31.5625V28.4107Z" fill="black"/>
<path d="M17.8982 31.5619L21.3447 34.2344H17.8982V31.5619ZM21.3447 31.5619H17.8982L21.3447 34.2344V31.5619Z" fill="black"/>
<path d="M7.70208 31.5619L11.3401 34.2344H7.70208V31.5619ZM11.3401 31.5619H7.70208L11.3401 34.2344V31.5619Z" fill="black"/>
<path d="M38.2519 27.0612L41.6985 34.3477H38.2519V27.0612ZM41.6985 27.0612H38.2519L41.6985 34.3477V27.0612Z" fill="black"/>
<path d="M82.8271 33.6577L87.3171 37.2969H82.8271V33.6577ZM87.3171 33.6577H82.8271L87.3171 37.2969V33.6577Z" fill="black"/>
<path d="M73.6746 27.0617L77.1211 37.2969H73.6746V27.0617ZM77.1211 27.0617H73.6746L77.1211 37.2969V27.0617Z" fill="black"/>
<path d="M68.9644 24.3892L72.4109 37.2969H68.9644V24.3892ZM72.4109 24.3892H68.9644L72.4109 37.2969V24.3892Z" fill="black"/>
<path d="M63.7179 27.0617L67.1644 37.2969H63.7179V27.0617ZM67.1836 27.0617H63.7179L67.1644 37.2969L67.1836 27.0617Z" fill="black"/>
<path d="M53.5505 27.0617L56.9971 37.2969H53.5505V27.0617ZM56.9971 27.0617H53.5505L56.9971 37.2969V27.0617Z" fill="black"/>
<path d="M38.2517 34.3482L51.8943 37.2969H38.2517V34.3482ZM51.8943 34.3482H38.2517L51.8943 37.2969V34.3482Z" fill="black"/>
<path d="M22.9531 27.0617L26.3997 37.2969H22.9531V27.0617ZM26.3997 27.0617H22.9531L26.3997 37.2969V27.0617Z" fill="black"/>
<path d="M7.70218 34.2345L21.3447 37.2969H7.70218V34.2345ZM21.3447 34.2345H7.70218L21.3447 37.2969V34.2345Z" fill="black"/>
<path d="M7.70218 24.3892H21.3447V37.2969H7.70218V28.4102H17.8982V27.0617H7.70218V24.3892Z" stroke="black" stroke-width="0.24" stroke-linecap="round" stroke-linejoin="round"/>
<path d="M17.8982 34.2344H11.3402V31.5619H17.8982V34.2344Z" stroke="black" stroke-width="0.24" stroke-linecap="round" stroke-linejoin="round"/>
<path d="M22.9532 37.2969H26.3997V27.0617H36.5957V24.3892H22.9532V37.2969Z" stroke="black" stroke-width="0.24" stroke-linecap="round" stroke-linejoin="round"/>
<path d="M51.8943 34.3482V37.2969H38.2517V24.3892H51.8943V27.0617H41.6983V34.3482H51.8943ZM51.8943 34.3482V37.2969" stroke="black" stroke-width="0.24" stroke-linecap="round" stroke-linejoin="round"/>
<path d="M53.5506 37.2969H56.9971V27.0617H63.7179V37.2969H67.1644L67.1931 24.3892H56.9971V18.305H53.5506V37.2969Z" stroke="black" stroke-width="0.24" stroke-linecap="round" stroke-linejoin="round"/>
<path d="M72.4109 37.2969H68.9644V24.3892H72.4109V37.2969Z" stroke="black" stroke-width="0.24" stroke-linecap="round" stroke-linejoin="round"/>
<path d="M87.3171 37.2969H82.8271V33.6577H87.3171V37.2969Z" stroke="black" stroke-width="0.24" stroke-linecap="round" stroke-linejoin="round"/>
<path d="M73.6746 37.2969H77.1211V27.0617H87.3171V24.3892H77.1211V18.24H73.6746V37.2969Z" stroke="black" stroke-width="0.24" stroke-linecap="round" stroke-linejoin="round"/>
</svg>
