<svg width="79" height="38" viewBox="0 0 79 38" fill="none" xmlns="http://www.w3.org/2000/svg">
<g clip-path="url(#clip0_401_769)">
<path d="M1.44203 33.7095C1.45091 33.6803 1.47092 33.6602 1.50203 33.6602H1.67981C1.71314 33.6602 1.7287 33.6803 1.73981 33.7095L2.90651 36.9992C2.9154 37.0283 2.90207 37.0485 2.87318 37.0485H2.67984C2.64428 37.0485 2.6265 37.0395 2.61539 36.9992L2.31761 36.1678H0.85312L0.557556 36.9992C0.542 37.0395 0.521999 37.0485 0.49311 37.0485H0.299771C0.270881 37.0485 0.255325 37.0283 0.264214 36.9992L1.4398 33.7095H1.44203ZM2.22205 35.8922L1.59536 34.1173H1.57981L0.946456 35.8922H2.22205Z" fill="#231F20"/>
<path d="M4.8692 37.052C4.84031 37.052 4.82031 37.0318 4.82031 37.0027V34.7236C4.82031 34.6945 4.84031 34.6743 4.8692 34.6743H5.0381C5.06699 34.6743 5.08699 34.6945 5.08699 34.7236V35.0284H5.09143C5.18032 34.7931 5.39366 34.625 5.72478 34.625C5.91368 34.625 6.08479 34.69 6.20035 34.7886C6.2248 34.8043 6.22924 34.8289 6.20924 34.8536L6.10924 34.9925C6.08924 35.0172 6.06479 35.0172 6.0359 35.0015C5.92701 34.932 5.80923 34.8827 5.66034 34.8827C5.24477 34.8827 5.08699 35.2457 5.08699 35.685V37.0004C5.08699 37.0296 5.06699 37.0497 5.0381 37.0497H4.8692V37.052Z" fill="#231F20"/>
<path d="M7.91367 35.2396C8.03812 34.8497 8.35812 34.6211 8.79369 34.6211C9.16481 34.6211 9.41593 34.7802 9.58927 35.0693C9.60483 35.0939 9.59816 35.1186 9.57371 35.1343L9.43593 35.2239C9.41149 35.2396 9.38704 35.2284 9.37149 35.2037C9.2337 34.9841 9.06926 34.8788 8.79369 34.8788C8.48702 34.8788 8.26923 35.0334 8.1759 35.327C8.13145 35.457 8.11145 35.6161 8.11145 35.8603C8.11145 36.1046 8.13145 36.2592 8.1759 36.3892C8.26923 36.6828 8.48702 36.8374 8.79369 36.8374C9.07148 36.8374 9.2337 36.7321 9.37149 36.5125C9.38704 36.4878 9.41149 36.4766 9.43593 36.4923L9.57371 36.5819C9.59816 36.5976 9.6026 36.6223 9.58927 36.6469C9.41593 36.936 9.16481 37.0951 8.79369 37.0951C8.35812 37.0951 8.03812 36.8665 7.91367 36.4766C7.86922 36.3265 7.84033 36.1427 7.84033 35.8581C7.84033 35.5735 7.86922 35.3853 7.91367 35.2351" fill="#231F20"/>
<path d="M13.2113 37.0502C13.1825 37.0502 13.1625 37.03 13.1625 37.0009V35.5958C13.1625 35.1229 12.9558 34.8831 12.5447 34.8831C12.1846 34.8831 11.9024 35.1319 11.9024 35.5465V37.0031C11.9024 37.0322 11.8824 37.0524 11.8535 37.0524H11.6846C11.6557 37.0524 11.6357 37.0322 11.6357 37.0031V33.7134C11.6357 33.6842 11.6557 33.6641 11.6846 33.6641H11.8535C11.8824 33.6641 11.9024 33.6842 11.9024 33.7134V35.0086H11.9069C12.0246 34.7733 12.2735 34.6254 12.6047 34.6254C13.1291 34.6254 13.4313 34.9549 13.4313 35.533V37.0031C13.4313 37.0322 13.4113 37.0524 13.3825 37.0524H13.2136L13.2113 37.0502Z" fill="#231F20"/>
<path d="M15.6451 34.0405C15.6162 34.0405 15.5962 34.0204 15.5962 33.9912V33.7134C15.5962 33.6842 15.6162 33.6641 15.6451 33.6641H15.8629C15.8918 33.6641 15.9118 33.6842 15.9118 33.7134V33.9912C15.9118 34.0204 15.8918 34.0405 15.8629 34.0405H15.6451ZM15.6695 37.0524C15.6406 37.0524 15.6206 37.0322 15.6206 37.0031V34.724C15.6206 34.6949 15.6406 34.6747 15.6695 34.6747H15.8384C15.8673 34.6747 15.8873 34.6949 15.8873 34.724V37.0031C15.8873 37.0322 15.8673 37.0524 15.8384 37.0524H15.6695Z" fill="#231F20"/>
<path d="M18.785 37.0671C18.3405 37.0671 18.1716 36.8923 18.1716 36.4239V34.9427C18.1716 34.9225 18.1627 34.9135 18.1427 34.9135H17.8961C17.8672 34.9135 17.8472 34.8934 17.8472 34.8642V34.7253C17.8472 34.6962 17.8672 34.676 17.8961 34.676H18.1427C18.1627 34.676 18.1716 34.667 18.1716 34.6469V33.9634C18.1716 33.9342 18.1916 33.9141 18.2205 33.9141H18.3894C18.4183 33.9141 18.4383 33.9342 18.4383 33.9634V34.6469C18.4383 34.667 18.4472 34.676 18.4672 34.676H18.9116C18.9405 34.676 18.9605 34.6962 18.9605 34.7253V34.8642C18.9605 34.8934 18.9405 34.9135 18.9116 34.9135H18.4672C18.4472 34.9135 18.4383 34.9225 18.4383 34.9427V36.4083C18.4383 36.7265 18.5472 36.8071 18.8183 36.8071H18.9116C18.9405 36.8071 18.9605 36.8273 18.9605 36.8564V37.0156C18.9605 37.0447 18.9405 37.0649 18.9116 37.0649H18.7827L18.785 37.0671Z" fill="#231F20"/>
<path d="M20.865 36.4721C20.8206 36.3265 20.7961 36.1629 20.7961 35.8581C20.7961 35.5533 20.8206 35.3853 20.865 35.2396C20.9939 34.8407 21.3139 34.6211 21.7406 34.6211C22.1673 34.6211 22.4917 34.8407 22.6206 35.2396C22.6695 35.3897 22.6895 35.5444 22.6895 35.8738C22.6895 35.9029 22.6695 35.9231 22.6362 35.9231H21.0984C21.0784 35.9231 21.0695 35.9388 21.0695 35.9589C21.0695 36.1584 21.085 36.2682 21.1184 36.378C21.2273 36.6917 21.465 36.8419 21.7851 36.8419C22.1051 36.8419 22.3051 36.7119 22.4429 36.5371C22.4629 36.5125 22.4873 36.508 22.5117 36.5282L22.6251 36.6335C22.6495 36.6536 22.6495 36.6783 22.6295 36.7029C22.4562 36.9382 22.1606 37.1018 21.7695 37.1018C21.3095 37.1018 20.9984 36.8822 20.865 36.4744V36.4721ZM22.3873 35.6968C22.4073 35.6968 22.4162 35.6878 22.4162 35.6676C22.4162 35.522 22.4006 35.4189 22.3717 35.3225C22.2784 35.029 22.0495 34.8743 21.7384 34.8743C21.4273 34.8743 21.205 35.029 21.1095 35.3225C21.0806 35.4166 21.065 35.522 21.065 35.6676C21.065 35.6878 21.0739 35.6968 21.0939 35.6968H22.3851H22.3873Z" fill="#231F20"/>
<path d="M24.6585 35.2396C24.783 34.8497 25.103 34.6211 25.5386 34.6211C25.9097 34.6211 26.1608 34.7802 26.3341 35.0693C26.3497 35.0939 26.343 35.1186 26.3186 35.1343L26.1808 35.2239C26.1564 35.2396 26.1319 35.2284 26.1164 35.2037C25.9786 34.9841 25.8141 34.8788 25.5386 34.8788C25.2319 34.8788 25.0141 35.0334 24.9208 35.327C24.8763 35.457 24.8563 35.6161 24.8563 35.8603C24.8563 36.1046 24.8763 36.2592 24.9208 36.3892C25.0141 36.6828 25.2319 36.8374 25.5386 36.8374C25.8164 36.8374 25.9786 36.7321 26.1164 36.5125C26.1319 36.4878 26.1564 36.4766 26.1808 36.4923L26.3186 36.5819C26.343 36.5976 26.3475 36.6223 26.3341 36.6469C26.1608 36.936 25.9097 37.0951 25.5386 37.0951C25.103 37.0951 24.783 36.8665 24.6585 36.4766C24.6141 36.3265 24.5852 36.1427 24.5852 35.8581C24.5852 35.5735 24.6141 35.3853 24.6585 35.2351" fill="#231F20"/>
<path d="M29.0543 37.0671C28.6098 37.0671 28.4409 36.8923 28.4409 36.4239V34.9427C28.4409 34.9225 28.432 34.9135 28.412 34.9135H28.1653C28.1365 34.9135 28.1165 34.8934 28.1165 34.8642V34.7253C28.1165 34.6962 28.1365 34.676 28.1653 34.676H28.412C28.432 34.676 28.4409 34.667 28.4409 34.6469V33.9634C28.4409 33.9342 28.4609 33.9141 28.4898 33.9141H28.6587C28.6876 33.9141 28.7076 33.9342 28.7076 33.9634V34.6469C28.7076 34.667 28.7165 34.676 28.7365 34.676H29.1809C29.2098 34.676 29.2298 34.6962 29.2298 34.7253V34.8642C29.2298 34.8934 29.2098 34.9135 29.1809 34.9135H28.7365C28.7165 34.9135 28.7076 34.9225 28.7076 34.9427V36.4083C28.7076 36.7265 28.8165 36.8071 29.0876 36.8071H29.1809C29.2098 36.8071 29.2298 36.8273 29.2298 36.8564V37.0156C29.2298 37.0447 29.2098 37.0649 29.1809 37.0649H29.052L29.0543 37.0671Z" fill="#231F20"/>
<path d="M32.7431 37.054C32.7142 37.054 32.6942 37.0338 32.6942 37.0047V36.7246H32.6898C32.572 36.9599 32.3231 37.1033 32.0031 37.1033C31.4786 37.1033 31.1875 36.7739 31.1875 36.2002V34.7234C31.1875 34.6943 31.2075 34.6741 31.2364 34.6741H31.4053C31.4342 34.6741 31.4542 34.6943 31.4542 34.7234V36.1285C31.4542 36.6081 31.652 36.8411 32.0631 36.8411C32.4186 36.8411 32.6964 36.5924 32.6964 36.1778V34.7212C32.6964 34.692 32.7164 34.6719 32.7453 34.6719H32.9142C32.9431 34.6719 32.9631 34.692 32.9631 34.7212V37.0002C32.9631 37.0294 32.9431 37.0495 32.9142 37.0495H32.7453L32.7431 37.054Z" fill="#231F20"/>
<path d="M35.232 37.052C35.2031 37.052 35.1831 37.0318 35.1831 37.0027V34.7236C35.1831 34.6945 35.2031 34.6743 35.232 34.6743H35.4009C35.4298 34.6743 35.4498 34.6945 35.4498 34.7236V35.0284H35.4542C35.5431 34.7931 35.7565 34.625 36.0876 34.625C36.2765 34.625 36.4476 34.69 36.5631 34.7886C36.5876 34.8043 36.592 34.8289 36.572 34.8536L36.4743 34.9925C36.4543 35.0172 36.4298 35.0172 36.4009 35.0015C36.292 34.932 36.1742 34.8827 36.0253 34.8827C35.6098 34.8827 35.452 35.2457 35.452 35.685V37.0004C35.452 37.0296 35.432 37.0497 35.4031 37.0497H35.2342L35.232 37.052Z" fill="#231F20"/>
<path d="M38.2723 36.4721C38.2278 36.3265 38.2034 36.1629 38.2034 35.8581C38.2034 35.5533 38.2278 35.3853 38.2723 35.2396C38.4012 34.8407 38.7212 34.6211 39.1478 34.6211C39.5745 34.6211 39.899 34.8407 40.0279 35.2396C40.0768 35.3897 40.0968 35.5444 40.0968 35.8738C40.0968 35.9029 40.0768 35.9231 40.0434 35.9231H38.5056C38.4856 35.9231 38.4767 35.9388 38.4767 35.9589C38.4767 36.1584 38.4923 36.2682 38.5256 36.378C38.6345 36.6917 38.8723 36.8419 39.1923 36.8419C39.5123 36.8419 39.7123 36.7119 39.8501 36.5371C39.8701 36.5125 39.8945 36.508 39.919 36.5282L40.0323 36.6335C40.0568 36.6536 40.0568 36.6783 40.0368 36.7029C39.8634 36.9382 39.5678 37.1018 39.1767 37.1018C38.7167 37.1018 38.4056 36.8822 38.2723 36.4744V36.4721ZM39.7945 35.6968C39.8145 35.6968 39.8234 35.6878 39.8234 35.6676C39.8234 35.522 39.8079 35.4189 39.779 35.3225C39.6856 35.029 39.4567 34.8743 39.1456 34.8743C38.8345 34.8743 38.6123 35.029 38.5189 35.3225C38.49 35.4166 38.4745 35.522 38.4745 35.6676C38.4745 35.6878 38.4834 35.6968 38.5034 35.6968H39.7945Z" fill="#231F20"/>
<path d="M44.8656 35.053C44.8411 35.0732 44.8123 35.0732 44.7923 35.0485L44.7078 34.923C44.6922 34.8984 44.6989 34.8737 44.7234 34.8536C44.8923 34.7079 45.1434 34.625 45.4745 34.625C46.0878 34.625 46.3345 34.8289 46.3345 35.4116V37.0027C46.3345 37.0318 46.3145 37.052 46.2856 37.052H46.1278C46.099 37.052 46.079 37.0318 46.079 37.0027V36.7539H46.0745C45.9812 36.9534 45.7278 37.1035 45.3434 37.1035C44.8678 37.1035 44.5522 36.8637 44.5522 36.3998C44.5522 35.936 44.8745 35.6962 45.4478 35.6962H46.0456C46.0656 35.6962 46.0745 35.6872 46.0745 35.667V35.4228C46.0745 35.0329 45.9412 34.8737 45.4612 34.8737C45.1745 34.8737 45.0056 34.9387 44.8678 35.053H44.8656ZM46.0745 36.3192V35.9561C46.0745 35.936 46.0656 35.927 46.0456 35.927H45.4812C45.0123 35.927 44.8145 36.0816 44.8145 36.3954C44.8145 36.7091 45.0211 36.8548 45.3967 36.8548C45.8012 36.8548 46.0745 36.6463 46.0745 36.3214" fill="#231F20"/>
<path d="M50.1015 37.0536C50.0726 37.0536 50.0526 37.0335 50.0526 37.0043V35.5992C50.0526 35.1264 49.8459 34.8866 49.4348 34.8866C49.0748 34.8866 48.7926 35.1354 48.7926 35.5499V37.0066C48.7926 37.0357 48.7726 37.0559 48.7437 37.0559H48.5748C48.5459 37.0559 48.5259 37.0357 48.5259 37.0066V34.7275C48.5259 34.6984 48.5459 34.6782 48.5748 34.6782H48.7437C48.7726 34.6782 48.7926 34.6984 48.7926 34.7275V35.0121H48.797C48.9148 34.7768 49.1637 34.6289 49.4948 34.6289C50.0193 34.6289 50.3193 34.9583 50.3193 35.5365V37.0066C50.3193 37.0357 50.2993 37.0559 50.2704 37.0559H50.1015V37.0536Z" fill="#231F20"/>
<path d="M54.0081 37.0507C53.9793 37.0507 53.9593 37.0306 53.9593 37.0014V36.7123H53.9548C53.8415 36.9364 53.6281 37.1023 53.237 37.1023C52.8214 37.1023 52.5548 36.9118 52.437 36.5331C52.3725 36.3381 52.3525 36.1297 52.3525 35.8653C52.3525 35.6008 52.3725 35.3857 52.437 35.193C52.5548 34.8143 52.8214 34.6238 53.237 34.6238C53.6281 34.6238 53.8392 34.7874 53.9548 35.0115H53.9593V33.7095C53.9593 33.6803 53.9793 33.6602 54.0081 33.6602H54.177C54.2059 33.6602 54.2259 33.6803 54.2259 33.7095V36.9992C54.2259 37.0283 54.2059 37.0485 54.177 37.0485H54.0081V37.0507ZM53.8948 36.4233C53.9393 36.2933 53.9593 36.123 53.9593 35.8653C53.9593 35.6076 53.9393 35.4305 53.8948 35.3028C53.8059 35.0227 53.5881 34.8837 53.2926 34.8837C52.997 34.8837 52.7792 35.0339 52.6903 35.3028C52.6414 35.4529 52.6259 35.6524 52.6259 35.8653C52.6259 36.0782 52.6414 36.2731 52.6903 36.4233C52.7792 36.6922 52.9859 36.8423 53.2926 36.8423C53.5992 36.8423 53.8081 36.7034 53.8948 36.4233Z" fill="#231F20"/>
<path d="M58.9839 33.7095C58.9839 33.6803 59.0039 33.6602 59.0328 33.6602H60.0861C60.6439 33.6602 61.0106 33.8843 61.1595 34.3481C61.2239 34.5476 61.2528 34.7381 61.2528 35.3543C61.2528 35.9706 61.2239 36.1611 61.1595 36.3605C61.0106 36.8244 60.6462 37.0485 60.0861 37.0485H59.0328C59.0039 37.0485 58.9839 37.0283 58.9839 36.9992V33.7095ZM59.295 36.7796H60.0461C60.4817 36.7796 60.7684 36.6249 60.8862 36.2664C60.9395 36.1028 60.9662 35.928 60.9662 35.3543C60.9662 34.7806 60.9417 34.6058 60.8862 34.4422C60.7684 34.0837 60.4817 33.9291 60.0461 33.9291H59.295C59.275 33.9291 59.2661 33.938 59.2661 33.9582V36.7504C59.2661 36.7706 59.2772 36.7796 59.295 36.7796Z" fill="#231F20"/>
<path d="M63.2618 36.4721C63.2173 36.3265 63.1929 36.1629 63.1929 35.8581C63.1929 35.5533 63.2173 35.3853 63.2618 35.2396C63.3907 34.8407 63.7107 34.6211 64.1373 34.6211C64.564 34.6211 64.8885 34.8407 65.0174 35.2396C65.0663 35.3897 65.0863 35.5444 65.0863 35.8738C65.0863 35.9029 65.0663 35.9231 65.0329 35.9231H63.4951C63.4751 35.9231 63.4662 35.9388 63.4662 35.9589C63.4662 36.1584 63.4818 36.2682 63.5151 36.378C63.624 36.6917 63.8618 36.8419 64.1818 36.8419C64.5018 36.8419 64.7018 36.7119 64.8396 36.5371C64.8596 36.5125 64.884 36.508 64.9085 36.5282L65.0218 36.6335C65.0463 36.6536 65.0463 36.6783 65.0263 36.7029C64.8529 36.9382 64.5574 37.1018 64.1662 37.1018C63.7062 37.1018 63.3951 36.8822 63.2618 36.4744V36.4721ZM64.784 35.6968C64.804 35.6968 64.8129 35.6878 64.8129 35.6676C64.8129 35.522 64.7974 35.4189 64.7685 35.3225C64.6751 35.029 64.4462 34.8743 64.1351 34.8743C63.824 34.8743 63.6018 35.029 63.5062 35.3225C63.4773 35.4166 63.4618 35.522 63.4618 35.6676C63.4618 35.6878 63.4707 35.6968 63.4907 35.6968H64.7818H64.784Z" fill="#231F20"/>
<path d="M66.9552 36.7657C66.9352 36.7455 66.9352 36.7164 66.9552 36.6962L67.0641 36.5707C67.0841 36.5506 67.113 36.555 67.133 36.5707C67.3152 36.7209 67.5774 36.8509 67.8997 36.8509C68.3108 36.8509 68.513 36.6671 68.513 36.3915C68.513 36.1517 68.4086 36.0217 67.9752 35.9724L67.7374 35.9477C67.2974 35.9029 67.0507 35.6878 67.0507 35.3136C67.0507 34.881 67.3619 34.6211 67.8819 34.6211C68.2041 34.6211 68.4797 34.7264 68.6686 34.8497C68.693 34.8698 68.693 34.899 68.6797 34.9191L68.5908 35.0379C68.5752 35.0626 68.5463 35.067 68.5219 35.0536C68.3686 34.964 68.1174 34.8698 67.8685 34.8698C67.5085 34.8698 67.3196 35.0289 67.3196 35.2934C67.3196 35.5264 67.4641 35.6519 67.8641 35.6923L68.1019 35.7169C68.5619 35.7617 68.7841 35.9858 68.7841 36.3556C68.7841 36.8083 68.4686 37.0996 67.8797 37.0996C67.4552 37.0996 67.1419 36.9203 66.9596 36.7657" fill="#231F20"/>
<path d="M70.8509 34.0405C70.822 34.0405 70.802 34.0204 70.802 33.9912V33.7134C70.802 33.6842 70.822 33.6641 70.8509 33.6641H71.0687C71.0976 33.6641 71.1176 33.6842 71.1176 33.7134V33.9912C71.1176 34.0204 71.0976 34.0405 71.0687 34.0405H70.8509ZM70.8753 37.0524C70.8464 37.0524 70.8264 37.0322 70.8264 37.0031V34.724C70.8264 34.6949 70.8464 34.6747 70.8753 34.6747H71.0442C71.0731 34.6747 71.0931 34.6949 71.0931 34.724V37.0031C71.0931 37.0322 71.0731 37.0524 71.0442 37.0524H70.8753Z" fill="#231F20"/>
<path d="M73.2598 37.6554C73.2442 37.6307 73.2442 37.6061 73.2687 37.5859L73.3931 37.4761C73.4176 37.4559 73.442 37.4604 73.462 37.485C73.6065 37.6486 73.8043 37.7383 74.0443 37.7383C74.4643 37.7383 74.7176 37.5299 74.7176 37.0144V36.6693H74.7132C74.6043 36.9024 74.3976 37.0593 74.0154 37.0593C73.6331 37.0593 73.3487 36.8553 73.2287 36.4901C73.1731 36.3197 73.1487 36.127 73.1487 35.8424C73.1487 35.5578 73.1731 35.3629 73.2287 35.1948C73.3465 34.8317 73.6198 34.6211 74.0154 34.6211C74.4109 34.6211 74.6043 34.7757 74.7132 35.0088H74.7176V34.7197C74.7176 34.6906 74.7376 34.6704 74.7665 34.6704H74.9354C74.9643 34.6704 74.9843 34.6906 74.9843 34.7197V37.0032C74.9843 37.6666 74.6287 37.996 74.0398 37.996C73.6976 37.996 73.3865 37.8458 73.2576 37.6509L73.2598 37.6554ZM74.6576 36.3847C74.7021 36.2503 74.7176 36.0912 74.7176 35.8402C74.7176 35.5892 74.7021 35.4323 74.6576 35.2956C74.5598 34.9976 74.342 34.8766 74.0687 34.8766C73.7776 34.8766 73.5798 35.0222 73.4909 35.2911C73.442 35.4301 73.422 35.6004 73.422 35.8402C73.422 36.08 73.442 36.248 73.4909 36.3847C73.5798 36.6581 73.7776 36.8038 74.0687 36.8038C74.3398 36.8038 74.5576 36.6783 74.6576 36.3847Z" fill="#231F20"/>
<path d="M78.7843 37.0536C78.7554 37.0536 78.7354 37.0335 78.7354 37.0043V35.5992C78.7354 35.1264 78.5288 34.8866 78.1177 34.8866C77.7576 34.8866 77.4754 35.1354 77.4754 35.5499V37.0066C77.4754 37.0357 77.4554 37.0559 77.4265 37.0559H77.2576C77.2287 37.0559 77.2087 37.0357 77.2087 37.0066V34.7275C77.2087 34.6984 77.2287 34.6782 77.2576 34.6782H77.4265C77.4554 34.6782 77.4754 34.6984 77.4754 34.7275V35.0121H77.4799C77.5976 34.7768 77.8465 34.6289 78.1777 34.6289C78.7021 34.6289 79.0021 34.9583 79.0021 35.5365V37.0066C79.0021 37.0357 78.9821 37.0559 78.9532 37.0559H78.7843V37.0536Z" fill="#231F20"/>
<path d="M0.0844468 30.4933C0.0333343 30.4933 0 30.4596 0 30.4081V24.7766C0 24.725 0.0333343 24.6914 0.0844468 24.6914H0.626684C0.677797 24.6914 0.711131 24.725 0.711131 24.7766V26.8763H0.72002C0.915581 26.5514 1.26226 26.3139 1.87116 26.3139C2.57341 26.3139 3.06453 26.6455 3.26676 27.2954C3.37787 27.6203 3.41121 27.943 3.41121 28.4473C3.41121 28.9515 3.37787 29.2831 3.26676 29.6081C3.06453 30.2557 2.57341 30.5896 1.87116 30.5896C1.26226 30.5896 0.915581 30.3431 0.72002 30.0182H0.711131V30.4103C0.711131 30.4619 0.677797 30.4955 0.626684 30.4955H0.0844468V30.4933ZM2.58896 29.2988C2.65785 29.0859 2.6823 28.8215 2.6823 28.445C2.6823 28.0685 2.65785 27.8131 2.58896 27.5912C2.4534 27.1901 2.14895 26.9772 1.70005 26.9772C1.25115 26.9772 0.937804 27.1811 0.804467 27.5912C0.737799 27.7951 0.711131 28.0349 0.711131 28.445C0.711131 28.8551 0.737799 29.1016 0.804467 29.2988C0.940026 29.7089 1.25337 29.9218 1.70005 29.9218C2.14673 29.9218 2.4534 29.7 2.58896 29.2988Z" fill="#231F20"/>
<path d="M7.94268 30.4954C7.89157 30.4954 7.85823 30.4618 7.85823 30.4103V30.0271H7.84934C7.63822 30.3677 7.26488 30.5896 6.74042 30.5896C5.85151 30.5896 5.33594 29.9755 5.33594 29.0455V26.4953C5.33594 26.4438 5.36927 26.4102 5.42038 26.4102H5.96262C6.01373 26.4102 6.04707 26.4438 6.04707 26.4953V28.8752C6.04707 29.5408 6.34263 29.924 6.94487 29.924C7.49378 29.924 7.85823 29.5318 7.85823 28.9178V26.4953C7.85823 26.4438 7.89157 26.4102 7.94268 26.4102H8.48492C8.53603 26.4102 8.56936 26.4438 8.56936 26.4953V30.4103C8.56936 30.4618 8.53603 30.4954 8.48492 30.4954H7.94268Z" fill="#231F20"/>
<path d="M10.8872 30.4958C10.8361 30.4958 10.8027 30.4622 10.8027 30.4106V26.4957C10.8027 26.4441 10.8361 26.4105 10.8872 26.4105H11.4294C11.4805 26.4105 11.5139 26.4441 11.5139 26.4957V26.9147H11.5228C11.7005 26.5652 12.0561 26.3164 12.5983 26.3164C12.9206 26.3164 13.225 26.4352 13.4273 26.6234C13.4695 26.666 13.4784 26.6996 13.445 26.7422L13.1317 27.159C13.0984 27.2016 13.0561 27.2105 13.0139 27.1769C12.8272 27.0582 12.625 26.9797 12.3872 26.9797C11.7694 26.9797 11.5161 27.466 11.5161 28.1742V30.4084C11.5161 30.4599 11.4828 30.4936 11.4316 30.4936H10.8894L10.8872 30.4958Z" fill="#231F20"/>
<path d="M20.2941 30.4958C20.243 30.4958 20.2097 30.4622 20.2097 30.4106V28.0218C20.2097 27.3652 19.9141 26.9797 19.3052 26.9797C18.763 26.9797 18.3741 27.3719 18.3741 27.9792V30.4106C18.3741 30.4622 18.3407 30.4958 18.2896 30.4958H17.7474C17.6963 30.4958 17.663 30.4622 17.663 30.4106V28.0218C17.663 27.3652 17.3674 26.9797 16.7585 26.9797C16.2096 26.9797 15.8273 27.3719 15.8273 27.9792V30.4106C15.8273 30.4622 15.794 30.4958 15.7429 30.4958H15.2007C15.1495 30.4958 15.1162 30.4622 15.1162 30.4106V26.4957C15.1162 26.4441 15.1495 26.4105 15.2007 26.4105H15.7429C15.794 26.4105 15.8273 26.4441 15.8273 26.4957V26.8699H15.8362C16.0318 26.5539 16.4207 26.3164 16.9696 26.3164C17.5185 26.3164 17.9252 26.5472 18.1541 26.9551H18.163C18.443 26.5629 18.8563 26.3164 19.4741 26.3164C20.4141 26.3164 20.9208 26.9215 20.9208 27.8515V30.4106C20.9208 30.4622 20.8875 30.4958 20.8364 30.4958H20.2941Z" fill="#231F20"/>
<path d="M25.5629 30.4958C25.5118 30.4958 25.4784 30.4622 25.4784 30.4106V30.0521H25.4695C25.2829 30.3591 24.8851 30.5899 24.2673 30.5899C23.4984 30.5899 22.905 30.1888 22.905 29.3619C22.905 28.535 23.4984 28.1002 24.4873 28.1002H25.4095C25.4429 28.1002 25.4607 28.0823 25.4607 28.0487V27.7506C25.4607 27.1881 25.2407 26.9484 24.4873 26.9484C24.0295 26.9484 23.7428 27.0671 23.505 27.2374C23.4628 27.2711 23.4117 27.2711 23.3873 27.2285L23.1584 26.8363C23.1317 26.7848 23.1406 26.7512 23.1761 26.7175C23.4806 26.4778 23.9539 26.3164 24.5562 26.3164C25.7073 26.3164 26.1473 26.6996 26.1473 27.708V30.4129C26.1473 30.4644 26.114 30.498 26.0629 30.498H25.5629V30.4958ZM25.4607 29.1736V28.721C25.4607 28.6873 25.4429 28.6694 25.4095 28.6694H24.5984C23.8962 28.6694 23.5917 28.8733 23.5917 29.335C23.5917 29.754 23.8962 29.9737 24.4384 29.9737C25.0718 29.9737 25.4629 29.6756 25.4629 29.1714" fill="#231F20"/>
<path d="M28.2009 30.4938C28.1498 30.4938 28.1165 30.4602 28.1165 30.4086V29.9559C28.1165 29.9223 28.1253 29.8865 28.1498 29.8618L30.3743 27.0718V27.0539H28.3098C28.2587 27.0539 28.2253 27.0203 28.2253 26.9687V26.4914C28.2253 26.4399 28.2587 26.4062 28.3098 26.4062H31.1365C31.1877 26.4062 31.221 26.4399 31.221 26.4914V26.9687C31.221 27.0113 31.2121 27.0292 31.1877 27.0629L28.9787 29.8282V29.8461H31.1365C31.1877 29.8461 31.221 29.8797 31.221 29.9313V30.4086C31.221 30.4602 31.1877 30.4938 31.1365 30.4938H28.2009Z" fill="#231F20"/>
<path d="M38.5565 30.4958C38.5054 30.4958 38.4721 30.4622 38.4721 30.4106V30.0521H38.4632C38.2765 30.3591 37.8787 30.5899 37.2609 30.5899C36.492 30.5899 35.8987 30.1888 35.8987 29.3619C35.8987 28.535 36.4898 28.1002 37.481 28.1002H38.4032C38.4365 28.1002 38.4543 28.0823 38.4543 28.0487V27.7506C38.4543 27.1881 38.2343 26.9484 37.481 26.9484C37.0232 26.9484 36.7365 27.0671 36.4987 27.2374C36.4565 27.2711 36.4054 27.2711 36.3809 27.2285L36.152 26.8363C36.1276 26.7848 36.1342 26.7512 36.1698 26.7175C36.4743 26.4778 36.9476 26.3164 37.5476 26.3164C38.6988 26.3164 39.1388 26.6996 39.1388 27.708V30.4129C39.1388 30.4644 39.1054 30.498 39.0543 30.498H38.5543L38.5565 30.4958ZM38.4543 29.1736V28.721C38.4543 28.6873 38.4365 28.6694 38.4032 28.6694H37.5921C36.8898 28.6694 36.5854 28.8733 36.5854 29.335C36.5854 29.754 36.8898 29.9737 37.4321 29.9737C38.0654 29.9737 38.4565 29.6756 38.4565 29.1714" fill="#231F20"/>
<path d="M41.4233 30.4958C41.3722 30.4958 41.3389 30.4622 41.3389 30.4106V26.4957C41.3389 26.4441 41.3722 26.4105 41.4233 26.4105H41.9655C42.0167 26.4105 42.05 26.4441 42.05 26.4957V26.9147H42.0589C42.2367 26.5652 42.5922 26.3164 43.1322 26.3164C43.4545 26.3164 43.7589 26.4352 43.9612 26.6234C44.0034 26.666 44.0123 26.6996 43.9789 26.7422L43.6656 27.159C43.6323 27.2016 43.59 27.2105 43.5478 27.1769C43.3611 27.0582 43.1589 26.9797 42.9211 26.9797C42.3033 26.9797 42.05 27.466 42.05 28.1742V30.4084C42.05 30.4599 42.0167 30.4936 41.9655 30.4936H41.4233V30.4958Z" fill="#231F20"/>
<path d="M45.5346 27.4128C45.7635 26.7047 46.3547 26.3125 47.1347 26.3125C47.7525 26.3125 48.2258 26.5769 48.5214 27.0027C48.548 27.0453 48.548 27.0789 48.4969 27.1215L48.1236 27.4285C48.0814 27.4621 48.0391 27.4621 48.0058 27.4195C47.768 27.1215 47.5414 26.9758 47.1347 26.9758C46.6947 26.9758 46.3658 27.1887 46.2302 27.6145C46.1613 27.8274 46.1369 28.0829 46.1369 28.4414C46.1369 28.8 46.1613 29.0644 46.2302 29.2773C46.3658 29.7031 46.6947 29.916 47.1347 29.916C47.5414 29.916 47.7702 29.7703 48.0058 29.4723C48.0391 29.4297 48.0814 29.4297 48.1236 29.4633L48.4969 29.7703C48.548 29.8129 48.548 29.8465 48.5214 29.8891C48.2258 30.3149 47.7525 30.5793 47.1347 30.5793C46.3569 30.5793 45.7635 30.1871 45.5346 29.479C45.4591 29.2302 45.408 28.8986 45.408 28.4369C45.408 27.9753 45.4591 27.6526 45.5346 27.4038" fill="#231F20"/>
<path d="M53.1214 30.4933C53.0703 30.4933 53.037 30.4596 53.037 30.4081V28.0192C53.037 27.3626 52.7414 26.9772 52.1325 26.9772C51.5836 26.9772 51.2014 27.3694 51.2014 27.9767V30.4081C51.2014 30.4596 51.168 30.4933 51.1169 30.4933H50.5747C50.5236 30.4933 50.4902 30.4596 50.4902 30.4081V24.7766C50.4902 24.725 50.5236 24.6914 50.5747 24.6914H51.1169C51.168 24.6914 51.2014 24.725 51.2014 24.7766V26.8674H51.2103C51.4058 26.5514 51.7947 26.3139 52.3436 26.3139C53.2236 26.3139 53.7481 26.9189 53.7481 27.8489V30.4081C53.7481 30.4596 53.7148 30.4933 53.6637 30.4933H53.1214Z" fill="#231F20"/>
<path d="M56.0061 25.4847C55.955 25.4847 55.9216 25.4511 55.9216 25.3995V24.7766C55.9216 24.725 55.955 24.6914 56.0061 24.6914H56.5816C56.6328 24.6914 56.6661 24.725 56.6661 24.7766V25.3995C56.6661 25.4511 56.6328 25.4847 56.5816 25.4847H56.0061ZM56.0239 30.4933C55.9727 30.4933 55.9394 30.4596 55.9394 30.4081V26.4931C55.9394 26.4416 55.9727 26.408 56.0239 26.408H56.5661C56.6172 26.408 56.6505 26.4416 56.6505 26.4931V30.4081C56.6505 30.4596 56.6172 30.4933 56.5661 30.4933H56.0239Z" fill="#231F20"/>
<path d="M60.0572 30.5358C59.2705 30.5358 58.966 30.1773 58.966 29.375V27.0377C58.966 27.0041 58.9482 26.9862 58.9149 26.9862H58.5771C58.526 26.9862 58.4927 26.9525 58.4927 26.901V26.4909C58.4927 26.4394 58.526 26.4057 58.5771 26.4057H58.9149C58.9482 26.4057 58.966 26.3901 58.966 26.3542V25.2023C58.966 25.1508 58.9994 25.1172 59.0505 25.1172H59.5927C59.6438 25.1172 59.6772 25.1508 59.6772 25.2023V26.3542C59.6772 26.3878 59.6949 26.4057 59.7283 26.4057H60.3705C60.4216 26.4057 60.455 26.4394 60.455 26.4909V26.901C60.455 26.9525 60.4216 26.9862 60.3705 26.9862H59.7283C59.6949 26.9862 59.6772 27.0041 59.6772 27.0377V29.3504C59.6772 29.7605 59.8305 29.8703 60.1927 29.8703H60.3705C60.4216 29.8703 60.455 29.9039 60.455 29.9554V30.4507C60.455 30.5022 60.4216 30.5358 60.3705 30.5358H60.0572Z" fill="#231F20"/>
<path d="M62.2906 29.479C62.2061 29.2145 62.155 28.9165 62.155 28.4459C62.155 27.9753 62.1973 27.6616 62.2817 27.4128C62.5106 26.7047 63.1017 26.3125 63.8729 26.3125C64.644 26.3125 65.2351 26.7136 65.464 27.4128C65.5485 27.6772 65.5907 27.9596 65.5907 28.5826C65.5907 28.6341 65.5573 28.6678 65.4973 28.6678H62.9328C62.8995 28.6678 62.8817 28.6857 62.8817 28.7193C62.8817 28.9411 62.9062 29.0778 62.9484 29.2145C63.1084 29.6829 63.4728 29.9227 63.9729 29.9227C64.4729 29.9227 64.7929 29.7255 65.0129 29.47C65.0551 29.4274 65.0973 29.4185 65.1396 29.4521L65.4862 29.7681C65.5285 29.8017 65.5285 29.8443 65.4951 29.8868C65.1729 30.2969 64.624 30.586 63.9129 30.586C63.0928 30.586 62.5084 30.1849 62.2884 29.4767L62.2906 29.479ZM64.8107 28.0941C64.844 28.0941 64.8618 28.0761 64.8618 28.0425C64.8618 27.8543 64.844 27.7109 64.8018 27.5831C64.6662 27.173 64.3284 26.9422 63.8706 26.9422C63.4128 26.9422 63.0751 27.173 62.9395 27.5831C62.8973 27.7109 62.8795 27.8565 62.8795 28.0425C62.8795 28.0761 62.8973 28.0941 62.9306 28.0941H64.8084H64.8107Z" fill="#231F20"/>
<path d="M67.4597 27.4128C67.6886 26.7047 68.2797 26.3125 69.0597 26.3125C69.6775 26.3125 70.1509 26.5769 70.4464 27.0027C70.4731 27.0453 70.4731 27.0789 70.422 27.1215L70.0486 27.4285C70.0064 27.4621 69.9642 27.4621 69.9309 27.4195C69.6931 27.1215 69.4664 26.9758 69.0597 26.9758C68.6197 26.9758 68.2908 27.1887 68.1553 27.6145C68.0864 27.8274 68.0619 28.0829 68.0619 28.4414C68.0619 28.8 68.0864 29.0644 68.1553 29.2773C68.2908 29.7031 68.6197 29.916 69.0597 29.916C69.4664 29.916 69.6953 29.7703 69.9309 29.4723C69.9642 29.4297 70.0064 29.4297 70.0486 29.4633L70.422 29.7703C70.4731 29.8129 70.4731 29.8465 70.4464 29.8891C70.1509 30.3149 69.6775 30.5793 69.0597 30.5793C68.2819 30.5793 67.6886 30.1871 67.4597 29.479C67.3841 29.2302 67.333 28.8986 67.333 28.4369C67.333 27.9753 67.3841 27.6526 67.4597 27.4038" fill="#231F20"/>
<path d="M73.5933 30.5358C72.8066 30.5358 72.5022 30.1773 72.5022 29.375V27.0377C72.5022 27.0041 72.4844 26.9862 72.451 26.9862H72.1133C72.0621 26.9862 72.0288 26.9525 72.0288 26.901V26.4909C72.0288 26.4394 72.0621 26.4057 72.1133 26.4057H72.451C72.4844 26.4057 72.5022 26.3901 72.5022 26.3542V25.2023C72.5022 25.1508 72.5355 25.1172 72.5866 25.1172H73.1288C73.18 25.1172 73.2133 25.1508 73.2133 25.2023V26.3542C73.2133 26.3878 73.2311 26.4057 73.2644 26.4057H73.9066C73.9578 26.4057 73.9911 26.4394 73.9911 26.4909V26.901C73.9911 26.9525 73.9578 26.9862 73.9066 26.9862H73.2644C73.2311 26.9862 73.2133 27.0041 73.2133 27.0377V29.3504C73.2133 29.7605 73.3666 29.8703 73.7289 29.8703H73.9066C73.9578 29.8703 73.9911 29.9039 73.9911 29.9554V30.4507C73.9911 30.5022 73.9578 30.5358 73.9066 30.5358H73.5933Z" fill="#231F20"/>
<path d="M75.6554 29.972C75.622 29.9384 75.622 29.8868 75.6554 29.8532L76.002 29.479C76.0354 29.4454 76.0865 29.4454 76.1198 29.479C76.4243 29.7434 76.8821 29.9473 77.3732 29.9473C77.9666 29.9473 78.2621 29.6919 78.2621 29.3244C78.2621 28.9994 78.1088 28.8201 77.4754 28.7529L77.0443 28.7103C76.2487 28.6252 75.8354 28.224 75.8354 27.5585C75.8354 26.7831 76.3843 26.3125 77.3421 26.3125C77.9354 26.3125 78.4421 26.5097 78.7799 26.7652C78.8221 26.7898 78.8221 26.8414 78.7977 26.8839L78.511 27.2515C78.4777 27.294 78.4355 27.294 78.3932 27.2694C78.131 27.0991 77.7154 26.9355 77.3021 26.9355C76.7954 26.9355 76.5332 27.1663 76.5332 27.498C76.5332 27.8296 76.7287 27.9932 77.3288 28.0537L77.751 28.0963C78.571 28.1725 78.9688 28.5916 78.9688 29.2482C78.9688 30.0504 78.3932 30.5883 77.3354 30.5883C76.5487 30.5883 75.9909 30.2633 75.6598 29.9742" fill="#231F20"/>
<path d="M46.5857 8.63456C45.6501 6.34654 43.7145 4.78235 41.4989 4.24676C41.4611 3.77392 41.3545 3.30107 41.1678 2.84392C40.2055 0.49763 37.5388 -0.622851 35.2121 0.351968C32.8853 1.32006 31.7786 4.00698 32.7409 6.35551C32.9298 6.81266 33.1809 7.22724 33.4854 7.58131C32.2964 9.53767 32.0164 12.0251 32.952 14.3132C34.5076 18.1116 38.8233 19.9156 42.5856 18.3469C46.3524 16.7805 48.1435 12.4285 46.5879 8.63456" fill="#231F20"/>
</g>
<defs>
<clipPath id="clip0_401_769">
<rect width="79" height="38" fill="white"/>
</clipPath>
</defs>
</svg>
