<svg width="43" height="43" viewBox="0 0 43 43" fill="none" xmlns="http://www.w3.org/2000/svg">
<path fill-rule="evenodd" clip-rule="evenodd" d="M0 21.1201C0 14.4521 0 7.78455 0 1.11658C0 0.80603 1.56479e-07 0.495483 0.000732578 0.184936C0.000732578 0.138427 0.00476083 0.0915526 0.0069581 0.0450438C0.00805673 0.0241698 0.0245366 0.0142817 0.0399174 0.00805613C0.0556645 0.00183054 0.0743412 0.00109859 0.0919193 0.00109859C0.150513 -4.46789e-08 0.209107 0 0.267701 0C14.1599 0 28.0521 0 41.9443 0C42.0088 0 42.0732 -4.47062e-07 42.1377 0.00183061C42.1857 0.00329545 42.2095 0.0289306 42.2117 0.0805663C42.2135 0.127441 42.2139 0.174316 42.2139 0.221191C42.2139 0.531738 42.2124 0.842285 42.2124 1.15283C42.2124 14.7462 42.2124 28.3396 42.2124 41.933C42.2124 42.0092 42.2098 42.085 42.2073 42.1611C42.2065 42.1838 42.1846 42.2065 42.163 42.2076C42.1161 42.2098 42.0696 42.2124 42.0227 42.2124C41.7004 42.2128 41.3782 42.2124 41.0559 42.2124H1.17151C0.849243 42.2124 0.526978 42.2124 0.204712 42.2124C0.151978 42.2124 0.0996099 42.2098 0.0468755 42.2076C0.0260015 42.2069 0.00549319 42.1835 0.00402834 42.1604C0.00219729 42.137 0.000366569 42.1139 0.000366569 42.0905C3.57636e-07 42.026 0.000366569 41.9616 0.000366569 41.8971V21.1201H0ZM32.8473 23.3243C32.837 23.3302 32.8275 23.3401 32.8169 23.3412C32.6418 23.361 32.4727 23.4104 32.3013 23.4481C32.2214 23.4657 32.1427 23.4884 32.0632 23.5082C32.0244 23.5177 31.9977 23.5052 31.9775 23.4664C31.9504 23.4144 31.9241 23.3621 31.8984 23.3097C28.6696 16.7402 25.4407 10.1711 22.2122 3.60168C22.0364 3.24426 21.861 2.88684 21.6848 2.52978C21.6643 2.48804 21.6383 2.44885 21.6141 2.40894C21.6127 2.40674 21.6031 2.40894 21.5977 2.4104C21.5929 2.41186 21.5863 2.41516 21.5852 2.41882C21.5654 2.49353 21.5746 2.57007 21.5746 2.64551C21.5742 9.24023 21.5742 15.835 21.5742 22.4297C21.5742 22.4941 21.5742 22.5586 21.5739 22.623C21.5739 22.6465 21.5713 22.6699 21.5691 22.693C21.5673 22.712 21.5424 22.7362 21.5218 22.738C21.4984 22.7402 21.4753 22.7424 21.4519 22.7424C21.2996 22.7435 21.1472 22.7476 20.9949 22.7439C20.9081 22.7417 20.8195 22.7578 20.7345 22.7267C20.6891 22.6384 20.7114 22.5436 20.7114 22.4524C20.7103 15.8199 20.7103 9.18713 20.7103 2.55469C20.7103 2.49023 20.7107 2.42578 20.7103 2.36133C20.7103 2.33826 20.707 2.31482 20.7045 2.29175C20.7041 2.28699 20.6993 2.27856 20.6968 2.27856C20.6865 2.27856 20.67 2.27856 20.6667 2.28442C20.6323 2.34521 20.5979 2.40637 20.5671 2.46936C17.8597 7.97681 15.1523 13.4846 12.4449 18.9921C12.2512 19.3861 12.0579 19.7805 11.8638 20.1746C11.8433 20.2163 11.8191 20.2566 11.7942 20.2958C11.7909 20.3013 11.7678 20.3024 11.7634 20.2976C11.7257 20.2533 11.6891 20.2075 11.6539 20.1614C11.5649 20.0446 11.4708 19.9332 11.3445 19.8527C11.2855 19.8149 11.231 19.7695 11.1749 19.7274C11.1548 19.7124 11.1471 19.6857 11.1566 19.6655C11.1819 19.6128 11.2075 19.5601 11.2335 19.5077C13.0159 15.8815 14.7982 12.2552 16.5809 8.62903C17.8209 6.10657 19.0609 3.58374 20.3005 1.06128C20.3265 1.00891 20.3525 0.956177 20.3749 0.902344C20.3804 0.888794 20.3727 0.869751 20.3708 0.850708C20.2925 0.836792 20.2163 0.843017 20.1409 0.843017C13.6549 0.843017 7.16858 0.843017 0.682617 0.843017C0.629883 0.843017 0.577149 0.843018 0.524414 0.843384C0.506836 0.843384 0.489258 0.845581 0.472046 0.847046C0.449707 0.848877 0.425171 0.869751 0.424439 0.890625C0.421875 0.960571 0.418579 1.03088 0.418579 1.10083C0.418579 14.4657 0.418579 27.8306 0.418579 41.1954C0.418579 41.254 0.418945 41.3126 0.420044 41.3712C0.420044 41.3826 0.42334 41.3943 0.427735 41.4053C0.429199 41.4089 0.437622 41.4104 0.443115 41.4111C0.447876 41.4115 0.454834 41.4111 0.457764 41.4078C0.505737 41.3544 0.52771 41.2866 0.558472 41.224C2.7312 36.8046 4.90356 32.3844 7.07593 27.9646C7.29272 27.5233 7.51025 27.082 7.72815 26.6407C7.74866 26.599 7.77026 26.5573 7.7959 26.5184C7.80359 26.5067 7.82556 26.4994 7.84131 26.4994C7.86401 26.4994 7.88782 26.5056 7.90979 26.5129C8.07678 26.5671 8.24451 26.6191 8.41003 26.6774C8.66638 26.7675 8.64587 26.7209 8.52649 26.9641C6.57935 30.9269 4.6311 34.8893 2.68323 38.8517C2.23901 39.7555 1.79443 40.6597 1.35059 41.5635C1.32239 41.6213 1.29602 41.6799 1.26965 41.7385C1.25977 41.7609 1.27588 41.7891 1.29895 41.7894C1.36926 41.7913 1.43921 41.7935 1.50952 41.7935C7.83142 41.7935 14.1537 41.7935 20.4756 41.7935C20.5342 41.7935 20.5928 41.7935 20.6514 41.7927C20.6686 41.7927 20.6862 41.7891 20.7034 41.7869C20.7184 41.785 20.733 41.7649 20.7286 41.748C20.7059 41.6558 20.7107 41.562 20.7107 41.4683C20.7107 36.5112 20.7107 31.5546 20.7107 26.5975C20.7107 26.5507 20.7107 26.5038 20.7114 26.4569C20.7114 26.4393 20.7111 26.4207 20.7173 26.4049C20.7231 26.3903 20.7356 26.3771 20.7484 26.3672C20.7568 26.361 20.7708 26.3606 20.7825 26.3606C21.0227 26.3606 21.2629 26.3599 21.5032 26.3606C21.5533 26.3606 21.572 26.3829 21.5735 26.4401C21.575 26.5104 21.5749 26.5807 21.5749 26.651C21.5749 31.5612 21.5749 36.4709 21.5749 41.3811C21.5749 41.5038 21.5815 41.6268 21.5563 41.7484C21.5515 41.7708 21.5713 41.7894 21.5999 41.7902C21.6643 41.792 21.7288 41.7935 21.7932 41.7935C28.1034 41.7935 34.4139 41.7935 40.7241 41.7931C40.7988 41.7931 40.875 41.807 40.9482 41.7784C40.9625 41.6887 40.9006 41.6254 40.8658 41.5543C39.3431 38.4529 37.819 35.3525 36.2948 32.2518C35.6155 30.8698 34.9362 29.4877 34.2568 28.1052C34.2308 28.0529 34.2048 28.0001 34.1821 27.9463C34.1763 27.9324 34.1788 27.9108 34.1851 27.8965C34.1946 27.8756 34.2107 27.8577 34.2253 27.8394C34.3678 27.6606 34.5117 27.4834 34.6527 27.3036C34.7611 27.1659 34.7516 27.1633 34.8325 27.3263C34.8457 27.3527 34.8582 27.379 34.871 27.4054C36.5369 30.795 38.2031 34.1851 39.869 37.5747C40.4656 38.7887 41.0625 40.0027 41.6594 41.2167C41.6876 41.2742 41.7176 41.3313 41.7491 41.3873C41.7524 41.3932 41.7693 41.3928 41.7799 41.3928C41.7832 41.3928 41.7894 41.3859 41.7894 41.3818C41.7916 41.3115 41.7942 41.2416 41.7942 41.1713C41.7942 27.824 41.7942 14.4767 41.7942 1.12939C41.7942 1.07666 41.7942 1.02393 41.7942 0.971191C41.7942 0.947753 41.7927 0.924316 41.7909 0.901245C41.7887 0.871582 41.7642 0.847046 41.7334 0.846313C41.6631 0.844482 41.5928 0.843384 41.5228 0.843384C35.0424 0.843384 28.5623 0.843384 22.0822 0.843384C22.0294 0.843384 21.9767 0.843017 21.924 0.84375C21.9009 0.844116 21.8778 0.847412 21.8514 0.849975C21.8492 0.868652 21.8412 0.887695 21.8467 0.901245C21.8661 0.949951 21.8892 0.997559 21.9126 1.0448C23.1035 3.46765 24.2948 5.89014 25.4857 8.31262C27.7485 12.9163 30.0113 17.5203 32.2742 22.1239C32.4499 22.4813 32.6257 22.8384 32.8008 23.1962C32.8209 23.2372 32.8506 23.2753 32.8473 23.3247V23.3243Z" fill="black"/>
<path fill-rule="evenodd" clip-rule="evenodd" d="M32.8467 23.3229C32.85 23.2735 32.8203 23.235 32.8002 23.1944C32.6251 22.8366 32.449 22.4795 32.2736 22.1221C30.0107 17.5185 27.7479 12.9145 25.4851 8.31084C24.2942 5.88799 23.1029 3.4655 21.912 1.04301C21.8889 0.995773 21.8655 0.948166 21.8461 0.89946C21.8406 0.88591 21.8486 0.866867 21.8508 0.84819C21.8768 0.845993 21.8999 0.842331 21.9233 0.841965C21.9761 0.840866 22.0288 0.841598 22.0815 0.841598C28.5616 0.841598 35.0421 0.841598 41.5222 0.841598C41.5925 0.841598 41.6628 0.842697 41.7328 0.844528C41.7635 0.84526 41.7881 0.869796 41.7903 0.89946C41.7921 0.922897 41.7932 0.946335 41.7936 0.969406C41.7939 1.02214 41.7936 1.07487 41.7936 1.12761C41.7936 14.4749 41.7936 27.8222 41.7936 41.1695C41.7936 41.2398 41.791 41.3097 41.7888 41.38C41.7888 41.3841 41.7826 41.391 41.7793 41.391C41.7687 41.391 41.7518 41.391 41.7485 41.3855C41.7174 41.3295 41.6874 41.2727 41.6588 41.2149C41.0619 40.0009 40.465 38.7873 39.8684 37.5729C38.2021 34.1833 36.5363 30.7933 34.8704 27.4036C34.8575 27.3772 34.8447 27.3509 34.8319 27.3245C34.7506 27.1615 34.7605 27.1641 34.6521 27.3018C34.5107 27.4812 34.3672 27.6589 34.2247 27.8376C34.2101 27.8559 34.194 27.8738 34.1844 27.8947C34.1779 27.909 34.1753 27.9306 34.1815 27.9445C34.2042 27.9983 34.2302 28.0507 34.2562 28.1034C34.9355 29.4855 35.6149 30.868 36.2942 32.25C37.8184 35.3508 39.3425 38.4515 40.8652 41.5525C40.9 41.6232 40.9619 41.6869 40.9476 41.7767C40.8744 41.8052 40.7982 41.7913 40.7235 41.7913C34.4133 41.792 28.1028 41.792 21.7926 41.7917C21.7281 41.7917 21.6637 41.7902 21.5992 41.7884C21.5707 41.7876 21.5509 41.7693 21.5557 41.7466C21.5806 41.625 21.5743 41.502 21.5743 41.3793C21.5743 36.4692 21.5743 31.5594 21.5743 26.6492C21.5743 26.5789 21.5743 26.5086 21.5729 26.4383C21.5718 26.3815 21.5527 26.3592 21.5026 26.3588C21.2623 26.3581 21.0221 26.3584 20.7819 26.3588C20.7705 26.3588 20.7562 26.3592 20.7478 26.3654C20.735 26.3749 20.7222 26.3885 20.7167 26.4031C20.7104 26.4189 20.7112 26.4375 20.7108 26.4551C20.7101 26.502 20.7101 26.5489 20.7101 26.5957C20.7101 31.5528 20.7101 36.5094 20.7101 41.4665C20.7101 41.5599 20.705 41.654 20.728 41.7463C20.7321 41.7631 20.7178 41.7829 20.7028 41.7851C20.6855 41.7873 20.668 41.7909 20.6508 41.7909C20.5922 41.792 20.5336 41.7917 20.475 41.7917C14.1531 41.7917 7.83081 41.7917 1.50891 41.7917C1.4386 41.7917 1.36865 41.7895 1.29834 41.7876C1.27527 41.7869 1.25916 41.7587 1.26904 41.7367C1.29541 41.6781 1.32178 41.6192 1.34998 41.5617C1.79419 40.6575 2.2384 39.7537 2.68262 38.8499C4.63049 34.8875 6.57873 30.9251 8.52588 26.9623C8.64526 26.7192 8.66577 26.7657 8.40942 26.6756C8.2439 26.6174 8.07617 26.5654 7.90918 26.5112C7.88721 26.5038 7.8634 26.4976 7.8407 26.4976C7.82532 26.4976 7.80298 26.5049 7.79529 26.5166C7.76965 26.5555 7.74805 26.5972 7.72754 26.639C7.51001 27.0799 7.29248 27.5212 7.07532 27.9628C4.90295 32.3826 2.73059 36.8024 0.557861 41.2222C0.527099 41.2848 0.50476 41.3526 0.457153 41.4061C0.454223 41.409 0.447266 41.4097 0.442505 41.4093C0.437012 41.409 0.428223 41.4071 0.427124 41.4035C0.423096 41.3929 0.4198 41.3808 0.419433 41.3694C0.418335 41.3108 0.417969 41.2522 0.417969 41.1936C0.417969 27.8288 0.417969 14.4639 0.417969 1.09904C0.417969 1.0291 0.421265 0.958786 0.423828 0.88884C0.424561 0.868332 0.449096 0.847458 0.471435 0.845261C0.489013 0.843796 0.506226 0.841598 0.523804 0.841598C0.576538 0.840866 0.629272 0.841232 0.682007 0.841232C7.16797 0.841232 13.6543 0.841232 20.1403 0.841232C20.2157 0.841232 20.2919 0.835006 20.3702 0.848922C20.3721 0.867599 20.3798 0.887008 20.3743 0.900558C20.3516 0.954391 20.3256 1.00713 20.2999 1.05949C19.0599 3.58232 17.8203 6.10478 16.5803 8.62724C14.798 12.2535 13.0156 15.8797 11.2329 19.5059C11.2069 19.5583 11.1813 19.611 11.156 19.6637C11.1461 19.6843 11.1542 19.7106 11.1743 19.7256C11.2303 19.7677 11.2849 19.8132 11.3439 19.8509C11.4702 19.9311 11.564 20.0424 11.6533 20.1596C11.6888 20.2061 11.7251 20.2515 11.7628 20.2958C11.7672 20.301 11.7903 20.2995 11.7936 20.294C11.8185 20.2544 11.8427 20.2145 11.8632 20.1728C12.0573 19.7787 12.2506 19.3843 12.4443 18.9903C15.1517 13.4828 17.8588 7.97502 20.5665 2.46758C20.5973 2.40495 20.6317 2.3438 20.6661 2.28264C20.6694 2.27678 20.6859 2.27715 20.6962 2.27678C20.6987 2.27678 20.7035 2.2852 20.7039 2.28996C20.7064 2.31303 20.7093 2.33647 20.7097 2.35954C20.7104 2.424 20.7097 2.48845 20.7097 2.5529C20.7097 9.18535 20.7097 15.8182 20.7108 22.4506C20.7108 22.5422 20.6885 22.6366 20.7339 22.7249C20.8188 22.756 20.9075 22.7403 20.9943 22.7421C21.1466 22.7458 21.2989 22.7421 21.4513 22.7406C21.4747 22.7406 21.4978 22.7381 21.5212 22.7363C21.5414 22.7344 21.5667 22.7106 21.5685 22.6912C21.5707 22.6678 21.5729 22.6447 21.5732 22.6213C21.574 22.5568 21.5736 22.4924 21.5736 22.4279C21.5736 15.8332 21.5736 9.23845 21.574 2.64372C21.574 2.56792 21.5648 2.49174 21.5846 2.41704C21.5857 2.41338 21.5923 2.41045 21.597 2.40862C21.6022 2.40678 21.6121 2.40495 21.6135 2.40715C21.6377 2.44707 21.6637 2.48625 21.6842 2.528C21.8607 2.88506 22.0361 3.24248 22.2115 3.5999C25.4404 10.1694 28.6689 16.7385 31.8978 23.3079C31.9238 23.3603 31.9498 23.4126 31.9769 23.4646C31.9971 23.5035 32.0234 23.5159 32.0626 23.5064C32.1421 23.4866 32.2208 23.4639 32.3007 23.4463C32.472 23.4086 32.6409 23.3592 32.8163 23.3394C32.8269 23.3383 32.8361 23.3284 32.8467 23.3226V23.3229ZM30.0939 25.6213L30.0997 25.6271C30.1001 25.5934 30.0693 25.5619 30.0975 25.5169C30.1407 25.4946 30.192 25.4671 30.2444 25.4418C30.4923 25.3228 30.741 25.2056 30.9882 25.0848C31.0878 25.0361 31.1841 24.9797 31.2815 24.9262C31.2965 24.9178 31.3134 24.9082 31.3221 24.8947C31.3306 24.8819 31.3364 24.861 31.332 24.8475C31.3276 24.8339 31.3104 24.8207 31.2958 24.8152C31.2804 24.8094 31.2606 24.8097 31.2441 24.8127C31.0944 24.8398 30.9449 24.8691 30.8043 24.9299C30.6644 24.9899 30.5249 25.05 30.3865 25.113C30.2425 25.1785 30.1005 25.2474 29.9576 25.3147C29.9155 25.3345 29.8734 25.3558 29.821 25.358C29.6288 25.28 29.4259 25.225 29.2179 25.1891C29.178 25.1822 29.1399 25.1664 29.1018 25.1551C29.1051 25.1163 29.1304 25.1016 29.1564 25.0877C29.4043 24.9559 29.6515 24.8226 29.9001 24.6918C30.1433 24.5636 30.3883 24.438 30.6315 24.3099C30.6728 24.2883 30.7117 24.2615 30.7498 24.2348C30.7637 24.2253 30.7743 24.2099 30.7831 24.1949C30.7886 24.1857 30.7937 24.1696 30.7893 24.1619C30.7585 24.1055 30.7274 24.0491 30.6919 23.9957C30.6685 23.9605 30.6311 23.9396 30.5879 23.9382C30.5472 23.9367 30.5059 23.9393 30.4652 23.9418C30.3367 23.9495 30.2081 23.9583 30.0796 23.9667C30.0386 23.9693 29.9976 23.9711 29.9569 23.9755C29.5845 24.0184 29.2153 24.0802 28.8477 24.152C28.8092 24.1597 28.7671 24.163 28.7371 24.2033C28.748 24.2278 28.759 24.2546 28.7722 24.2802C28.8066 24.3465 28.8623 24.3666 28.9341 24.3542C29.0322 24.3373 29.1304 24.3219 29.2285 24.3066C29.5002 24.2641 29.7716 24.2205 30.0437 24.1806C30.1418 24.1663 30.2411 24.1604 30.3396 24.1509C30.3425 24.1839 30.3242 24.1974 30.3033 24.2081C30.1158 24.3044 29.9276 24.3985 29.7412 24.497C29.524 24.6116 29.3083 24.7299 29.0923 24.8471C29.015 24.8892 28.941 24.9364 28.8813 25.0024C28.8645 25.021 28.8634 25.0448 28.8667 25.0686C28.8674 25.0741 28.87 25.08 28.8729 25.0851C28.993 25.2968 29.0073 25.2939 29.2018 25.3389C29.3325 25.3693 29.4647 25.3953 29.5958 25.4246C29.6053 25.4268 29.6163 25.4382 29.6193 25.4477C29.6218 25.4554 29.6171 25.4718 29.6101 25.4759C29.5647 25.5026 29.5186 25.5279 29.472 25.552C29.1446 25.7223 28.822 25.9003 28.517 26.1087C28.3573 26.2178 28.2013 26.3313 28.0574 26.4613C27.9834 26.5284 27.9142 26.5998 27.8527 26.6781C27.8311 26.7056 27.8116 26.7353 27.7941 26.7657C27.753 26.8363 27.7494 26.9114 27.782 26.985C27.8032 27.033 27.8318 27.0777 27.8611 27.1213C27.8849 27.1568 27.9222 27.1758 27.9644 27.1813C27.9933 27.185 28.0226 27.1864 28.0515 27.1842C28.157 27.1762 28.2599 27.1575 28.3606 27.1242C28.8352 26.9671 29.2856 26.7591 29.7068 26.4895C29.7906 26.4361 29.8705 26.3764 29.9499 26.3167C30.0159 26.2673 30.0708 26.2061 30.1191 26.1391C30.1536 26.0915 30.1832 26.0409 30.1993 25.9838C30.2151 25.9274 30.229 25.8707 30.2103 25.8113C30.1876 25.7384 30.1634 25.667 30.0942 25.6227L30.0939 25.6213ZM27.0616 25.0038C27.0591 25.0265 27.0613 25.0514 27.0529 25.0719C27.0283 25.1331 27.0441 25.1869 27.0763 25.2386C27.1074 25.288 27.14 25.3371 27.173 25.3851C27.2202 25.4535 27.2861 25.4814 27.3689 25.4792C27.4579 25.4766 27.5432 25.4561 27.6263 25.4279C28.0288 25.2913 28.3954 25.0862 28.7378 24.8365C28.7748 24.8094 28.8052 24.7724 28.8367 24.7383C28.8433 24.7314 28.8444 24.7167 28.8433 24.7061C28.8407 24.6731 28.8 24.6373 28.7715 24.6413C28.7543 24.6438 28.7363 24.6449 28.7206 24.6519C28.6451 24.6841 28.5697 24.7156 28.4961 24.7511C28.2379 24.8757 27.9816 25.0042 27.7153 25.1115C27.6179 25.1507 27.5183 25.1862 27.4183 25.2181C27.3748 25.232 27.3268 25.2334 27.2806 25.2389C27.2594 25.2415 27.2415 25.2089 27.2524 25.1888C27.2861 25.1272 27.3151 25.0624 27.3557 25.0057C27.5194 24.7768 27.6959 24.5578 27.8959 24.3597C28.0039 24.2524 28.1171 24.1506 28.2277 24.0462C28.2614 24.0143 28.3031 23.9898 28.3225 23.9444C28.3108 23.8909 28.2789 23.8492 28.2441 23.8096C28.2233 23.7858 28.176 23.7759 28.1467 23.7913C28.1211 23.8049 28.0955 23.8195 28.0735 23.8378C27.8611 24.0136 27.663 24.2044 27.4799 24.4102C27.3315 24.5772 27.196 24.7526 27.0957 24.9533C27.0854 24.9742 27.0708 24.9925 27.058 25.0123C27.0547 24.9837 27.0558 24.9537 27.047 24.9266C27.0298 24.8731 26.9869 24.8519 26.9382 24.8709C26.7694 24.9375 26.6006 25.0038 26.4332 25.0734C26.26 25.1452 26.0846 25.2096 25.9015 25.2521C25.7971 25.2763 25.6924 25.2756 25.5873 25.2602C25.5814 25.2594 25.5763 25.2565 25.5704 25.2551C25.5444 25.2481 25.521 25.2162 25.521 25.1895C25.521 25.0873 25.5573 24.9943 25.5972 24.9031C25.6488 24.7845 25.7206 24.6772 25.7891 24.568C25.833 24.4981 25.8865 24.4369 25.9513 24.3846C26.0743 24.2853 26.1967 24.185 26.3179 24.0835C26.4435 23.9781 26.572 23.8755 26.6914 23.7635C27.0763 23.4031 27.4571 23.0384 27.8278 22.6634C28.042 22.4466 28.2544 22.2287 28.4507 21.995C28.4694 21.9731 28.4932 21.9537 28.4917 21.9174C28.4862 21.9039 28.48 21.8877 28.4727 21.872C28.4679 21.8614 28.4617 21.8511 28.4554 21.8412C28.4228 21.7892 28.3859 21.7757 28.3386 21.8042C28.2734 21.8434 28.209 21.8841 28.1464 21.9273C27.7472 22.2056 27.3674 22.5085 27.0016 22.8296C26.5248 23.2486 26.0853 23.702 25.7162 24.2201C25.6671 24.289 25.6019 24.3366 25.532 24.3802C25.5115 24.393 25.4836 24.3923 25.4686 24.3717C25.3822 24.2505 25.2573 24.2366 25.124 24.2454C25.0951 24.2472 25.0658 24.2527 25.0372 24.2586C24.5857 24.3501 24.1865 24.549 23.835 24.8456C23.7764 24.8947 23.7218 24.9478 23.6775 25.0104C23.6504 25.0485 23.6273 25.0888 23.6134 25.1346C23.5988 25.1825 23.6009 25.228 23.6251 25.2704C23.657 25.3265 23.6921 25.3803 23.7269 25.4345C23.769 25.4993 23.8317 25.5286 23.9067 25.5242C23.9767 25.5198 24.0474 25.5129 24.1147 25.4964C24.2228 25.47 24.3268 25.4312 24.4282 25.384C24.593 25.3071 24.7523 25.2206 24.9058 25.1232C25.0343 25.0419 25.161 24.9573 25.2885 24.8738C25.3126 24.8581 25.3346 24.8383 25.3668 24.8416C25.3884 24.883 25.3628 24.9211 25.3566 24.9603C25.3441 25.0386 25.3544 25.1126 25.3979 25.1796C25.4393 25.2433 25.4811 25.3074 25.5261 25.3686C25.573 25.4327 25.6382 25.4678 25.7173 25.4825C25.8231 25.5019 25.9279 25.4916 26.0315 25.4715C26.1754 25.4436 26.3157 25.403 26.4504 25.3437C26.6061 25.2752 26.7566 25.1976 26.8954 25.0983C26.9467 25.0617 26.9935 25.0148 27.0613 25.0049L27.0616 25.0038ZM17.1476 25.0038C17.145 25.0265 17.1472 25.0514 17.1388 25.0719C17.1143 25.1331 17.13 25.1869 17.1622 25.2386C17.1934 25.288 17.226 25.3371 17.2589 25.3851C17.3062 25.4535 17.3721 25.4814 17.4548 25.4792C17.5438 25.4766 17.6291 25.4561 17.7123 25.4279C18.1147 25.2913 18.4813 25.0862 18.8237 24.8365C18.8607 24.8094 18.8911 24.7724 18.9226 24.7383C18.9292 24.7314 18.9303 24.7167 18.9292 24.7061C18.9266 24.6731 18.886 24.6373 18.8574 24.6413C18.8402 24.6438 18.8223 24.6449 18.8065 24.6519C18.7311 24.6841 18.6556 24.7156 18.582 24.7511C18.3238 24.8757 18.0675 25.0042 17.8013 25.1115C17.7039 25.1507 17.6042 25.1862 17.5043 25.2181C17.4607 25.232 17.4127 25.2334 17.3666 25.2389C17.3453 25.2415 17.3274 25.2089 17.3384 25.1888C17.3721 25.1272 17.401 25.0624 17.4416 25.0057C17.6053 24.7768 17.7815 24.5578 17.9818 24.3597C18.0898 24.2527 18.203 24.1506 18.3136 24.0462C18.3473 24.0143 18.389 23.9898 18.4084 23.9444C18.3967 23.8909 18.3649 23.8492 18.3301 23.8096C18.3092 23.7858 18.262 23.7759 18.2327 23.7913C18.207 23.8049 18.1814 23.8195 18.1591 23.8378C17.9467 24.0136 17.7489 24.2044 17.5654 24.4102C17.4171 24.5772 17.2816 24.7526 17.1813 24.9533C17.171 24.9742 17.156 24.9925 17.1436 25.0123C17.1403 24.9837 17.1414 24.9537 17.1326 24.9266C17.1154 24.8731 17.0725 24.8519 17.0238 24.8709C16.855 24.9375 16.6862 25.0038 16.5188 25.0734C16.3456 25.1452 16.1702 25.2096 15.9871 25.2521C15.8831 25.2763 15.7783 25.2756 15.6732 25.2605C15.6674 25.2598 15.6622 25.2569 15.6564 25.2554C15.6304 25.2485 15.6069 25.217 15.6066 25.1902C15.6066 25.0881 15.6428 24.995 15.6824 24.9039C15.734 24.7852 15.8058 24.6779 15.8743 24.5688C15.9182 24.4985 15.9717 24.4377 16.0361 24.3853C16.1592 24.2861 16.2815 24.1857 16.4027 24.0843C16.5327 23.9751 16.6656 23.8686 16.7891 23.7521C17.0831 23.4749 17.3746 23.1951 17.6636 22.912C17.965 22.6169 18.2623 22.318 18.5355 21.9961C18.5542 21.9742 18.578 21.9548 18.5769 21.9112C18.5615 21.8844 18.5425 21.8486 18.5205 21.8145C18.5059 21.7918 18.4648 21.7826 18.4414 21.7969C18.3715 21.8394 18.3004 21.8808 18.2334 21.9273C17.8005 22.229 17.3878 22.5572 16.9978 22.9124C16.829 23.0662 16.6624 23.2229 16.5027 23.3859C16.2526 23.6412 16.0204 23.9133 15.8135 24.2051C15.7545 24.2883 15.6824 24.3523 15.5908 24.3901C15.5428 24.3783 15.5267 24.3351 15.4949 24.3106C15.4575 24.2813 15.4183 24.2557 15.3696 24.2513C15.288 24.2443 15.2067 24.2414 15.125 24.2582C14.7284 24.3395 14.3691 24.5025 14.0461 24.7464C14.004 24.7782 13.9626 24.8105 13.9198 24.8409C13.9121 24.8464 13.8978 24.8431 13.8865 24.8442C13.8865 24.8182 13.9048 24.8028 13.9202 24.7856C13.9432 24.7592 13.9663 24.7332 13.9883 24.7061C14 24.6915 13.9945 24.6508 13.9777 24.6427C13.963 24.6362 13.9443 24.631 13.9297 24.6347C13.9077 24.6402 13.8865 24.6523 13.8671 24.6647C13.8026 24.7054 13.7385 24.746 13.6752 24.7885C13.4855 24.9156 13.2906 25.035 13.0907 25.1452C12.9772 25.2074 12.8585 25.2558 12.7336 25.2902C12.6882 25.3027 12.6425 25.3093 12.5948 25.3034C12.5652 25.2997 12.5403 25.2693 12.5502 25.2415C12.5637 25.203 12.5769 25.1639 12.5967 25.1287C12.7014 24.939 12.8083 24.7504 12.9145 24.5618C12.949 24.5007 12.9845 24.4402 13.0189 24.3787C13.0314 24.3564 13.0273 24.3326 13.0142 24.3124C12.9947 24.2835 12.9735 24.2557 12.9515 24.2286C12.9384 24.2121 12.9065 24.2066 12.8867 24.2165C12.8552 24.2319 12.8237 24.2476 12.7933 24.2648C12.6758 24.3304 12.559 24.3974 12.4414 24.4626C12.2008 24.5959 11.9602 24.7295 11.7189 24.8614C11.5852 24.9342 11.4508 25.006 11.3142 25.0727C11.204 25.1265 11.0897 25.173 10.9769 25.2206C10.9561 25.2294 10.9315 25.2298 10.9088 25.2334C10.8923 25.236 10.8744 25.2148 10.8795 25.2009C10.9132 25.1111 10.9755 25.0405 11.0403 24.9731C11.1743 24.8335 11.3091 24.6955 11.4479 24.5607C11.557 24.4549 11.6647 24.3472 11.7866 24.2549C11.7947 24.2491 11.7965 24.2352 11.8031 24.222C11.7771 24.1652 11.7441 24.1106 11.6984 24.0641C11.6848 24.0502 11.6658 24.0484 11.65 24.0568C11.624 24.07 11.5984 24.085 11.576 24.1033C11.4541 24.204 11.3325 24.3051 11.2124 24.408C11.1589 24.4538 11.1036 24.4911 11.0374 24.5197C10.8389 24.6058 10.6448 24.7021 10.4485 24.794C10.1464 24.9353 9.8446 25.0782 9.54101 25.2159C9.33337 25.31 9.1228 25.399 8.90308 25.4623C8.76208 25.503 8.61963 25.5337 8.47351 25.548C8.43762 25.5513 8.41968 25.5268 8.43652 25.4924C8.46728 25.4294 8.49585 25.3645 8.53467 25.3067C8.65845 25.1217 8.78735 24.9401 8.94116 24.7779C9.00159 24.7142 9.05835 24.6468 9.11694 24.5812C9.20068 24.4875 9.30237 24.427 9.422 24.4C9.49597 24.3831 9.56921 24.3641 9.64282 24.3454C9.64685 24.3443 9.65344 24.3373 9.65271 24.3344C9.65015 24.3234 9.64831 24.3099 9.64062 24.3036C9.62744 24.293 9.61133 24.2839 9.59521 24.2802C9.5498 24.2703 9.50329 24.2641 9.45752 24.2546C9.4436 24.2516 9.43994 24.2392 9.44507 24.2275C9.44983 24.2168 9.45386 24.2055 9.46155 24.1971C9.59338 24.0477 9.72449 23.8979 9.85852 23.7507C9.89368 23.7118 9.93616 23.68 9.97717 23.647C10.1555 23.5042 10.3368 23.365 10.5126 23.2193C10.6975 23.0662 10.8781 22.9076 11.059 22.7498C11.1102 22.7051 11.163 22.6817 11.2336 22.6864C11.6427 22.715 12.0521 22.7352 12.4608 22.7666C12.7593 22.7897 13.0537 22.8351 13.3485 22.8831C13.413 22.8937 13.4727 22.9153 13.5214 22.9622C13.5334 22.9736 13.5514 22.9787 13.5671 22.986C13.5781 22.9911 13.6078 22.9725 13.6082 22.9611C13.6114 22.9018 13.5968 22.8454 13.5792 22.7894C13.5624 22.7359 13.5261 22.6982 13.477 22.6744C13.4298 22.6513 13.3804 22.6348 13.3276 22.6249C13.1149 22.5843 12.9025 22.5444 12.6868 22.5209C12.4132 22.4913 12.1393 22.4645 11.8643 22.4495C11.7416 22.4429 11.6193 22.4286 11.4969 22.4177C11.4922 22.4173 11.4849 22.4129 11.4841 22.4092C11.4819 22.399 11.4783 22.3843 11.4834 22.3781C11.505 22.3506 11.5281 22.3243 11.5526 22.2994C11.7251 22.1239 11.8968 21.9478 12.0712 21.7742C12.2415 21.6047 12.2209 21.6255 12.1188 21.3974C12.1085 21.3747 12.0649 21.3611 12.0419 21.3707C11.9653 21.4029 11.8998 21.452 11.8372 21.5051C11.65 21.6647 11.4636 21.8251 11.2772 21.9859C11.1487 22.0968 11.0201 22.2082 10.8927 22.3206C10.8414 22.3656 10.7843 22.3829 10.7158 22.381C10.5052 22.3759 10.2943 22.3737 10.0834 22.3744C9.94861 22.3748 9.81421 22.3825 9.67944 22.3862C9.65051 22.3869 9.62121 22.384 9.59228 22.3818C9.58862 22.3818 9.58386 22.3759 9.58276 22.3719C9.5813 22.3671 9.5813 22.3583 9.58423 22.3561C9.59851 22.3459 9.61279 22.3356 9.62854 22.3279C9.97204 22.1624 10.3005 21.9712 10.6104 21.7482C10.7495 21.6482 10.8755 21.5365 10.9802 21.4007C11.0271 21.3399 11.0681 21.2754 11.0926 21.2029C11.1238 21.111 11.1241 21.0198 11.0765 20.9308C11.0242 20.832 10.9623 20.7404 10.8879 20.6565C10.8162 20.5756 10.7308 20.5196 10.6279 20.4841C10.4661 20.4277 10.2987 20.4017 10.1295 20.387C9.89001 20.3661 9.64978 20.3581 9.40991 20.3808C9.31103 20.3899 9.21179 20.4017 9.11365 20.4163C8.92249 20.4445 8.73132 20.4716 8.54126 20.5057C8.28162 20.5522 8.0282 20.6239 7.77551 20.6979C7.04968 20.9107 6.34253 21.1714 5.66211 21.504C5.34534 21.6589 5.04797 21.8445 4.76123 22.0485C4.63159 22.1408 4.51587 22.2477 4.42065 22.3759C4.28955 22.5528 4.25513 22.7454 4.31628 22.9574C4.34924 23.0717 4.39905 23.1772 4.47302 23.2691C4.53894 23.3511 4.60889 23.4306 4.68176 23.506C4.90991 23.743 5.16077 23.9543 5.42187 24.1531C5.71997 24.3802 6.0199 24.605 6.31873 24.8313C6.37476 24.8738 6.42895 24.9181 6.48352 24.9621C6.50183 24.9767 6.49487 25.0097 6.47143 25.0192C6.40625 25.0456 6.34106 25.0712 6.27551 25.0961C6.1554 25.1419 6.03345 25.1844 5.91479 25.2334C5.49841 25.4059 5.08826 25.5923 4.68469 25.7937C4.2804 25.9959 3.8988 26.235 3.52856 26.4932C3.35498 26.6141 3.19604 26.7525 3.05432 26.91C2.96753 27.0066 2.89905 27.1143 2.84595 27.2333C2.80933 27.315 2.80896 27.393 2.85547 27.4681C2.90491 27.5475 2.95728 27.6252 3.01184 27.7013C3.04663 27.75 3.09534 27.7823 3.15173 27.8035C3.27991 27.8515 3.41174 27.876 3.54797 27.8617C3.67029 27.8489 3.79187 27.8313 3.91345 27.8134C4.12842 27.7812 4.33569 27.7189 4.54297 27.6556C5.08899 27.4889 5.60498 27.2564 6.08874 26.9528C6.25354 26.8495 6.40295 26.7276 6.53662 26.5873C6.65857 26.4595 6.76257 26.3182 6.84131 26.1596C6.92956 25.982 6.96326 25.7952 6.93725 25.5971C6.92407 25.4978 6.90356 25.4012 6.87134 25.3067C6.85815 25.2679 6.84534 25.229 6.83069 25.1851C6.85046 25.1712 6.86694 25.1547 6.88708 25.1459C7.25073 24.9892 8.52588 24.5959 8.72803 24.5776C8.73169 24.5776 8.73572 24.5831 8.74011 24.586C8.73535 24.623 8.70788 24.6471 8.68811 24.6757C8.60791 24.7911 8.52734 24.9061 8.44788 25.0221C8.37427 25.1287 8.32666 25.2492 8.27173 25.3656C8.24536 25.4217 8.25232 25.4795 8.28967 25.5319C8.32007 25.5748 8.34863 25.6194 8.37866 25.6626C8.41052 25.7084 8.45557 25.7359 8.5105 25.7406C8.5625 25.745 8.61597 25.748 8.6676 25.7417C8.73132 25.7341 8.79394 25.7183 8.85657 25.7026C9.15283 25.6286 9.43774 25.5235 9.71423 25.3946C10.0273 25.2488 10.3342 25.0906 10.6345 24.9196C10.6594 24.9053 10.6865 24.8947 10.7133 24.8837C10.7169 24.8822 10.7242 24.8863 10.7279 24.8896C10.7312 24.8929 10.7349 24.8998 10.7334 24.9031C10.7092 24.9628 10.6814 25.021 10.6602 25.0815C10.6382 25.1448 10.6418 25.2085 10.681 25.2664C10.7206 25.3243 10.7583 25.384 10.8019 25.4389C10.8451 25.4938 10.9048 25.5132 10.9744 25.4989C11.0894 25.4751 11.2003 25.4385 11.3076 25.3906C11.4468 25.3283 11.5797 25.2543 11.7115 25.1778C11.9551 25.0368 12.1862 24.8771 12.4161 24.7153C12.4689 24.6783 12.5223 24.6424 12.5765 24.608C12.5981 24.594 12.6212 24.601 12.6421 24.6138L12.6384 24.612C12.567 24.7515 12.493 24.8899 12.4249 25.0313C12.3813 25.1221 12.3945 25.2126 12.4484 25.2975C12.4799 25.3473 12.519 25.3895 12.5677 25.4228C12.6443 25.4748 12.726 25.4931 12.8164 25.4667C12.8948 25.4436 12.9713 25.4173 13.0446 25.381C13.191 25.3089 13.3328 25.229 13.4668 25.136C13.5814 25.0566 13.6913 24.9705 13.8037 24.8874C13.8312 24.8669 13.8539 24.8379 13.8927 24.8376C13.8868 24.8533 13.8843 24.8716 13.874 24.8841C13.8407 24.9247 13.8033 24.9621 13.7704 25.0027C13.7374 25.0437 13.7125 25.0899 13.6986 25.1419C13.6873 25.1836 13.6873 25.2247 13.7085 25.2609C13.7462 25.3265 13.7861 25.3916 13.8297 25.4535C13.8572 25.4927 13.8989 25.5162 13.9484 25.5206C13.9773 25.5231 14.0066 25.5235 14.0355 25.5228C14.13 25.5202 14.2201 25.4953 14.3091 25.4656C14.4984 25.4023 14.6757 25.3122 14.8463 25.2104C14.9968 25.1207 15.1433 25.0243 15.2913 24.9302C15.3308 24.905 15.3682 24.8768 15.4081 24.8526C15.4209 24.8449 15.4392 24.8453 15.455 24.8464C15.4579 24.8464 15.4626 24.8676 15.4612 24.8779C15.4568 24.9068 15.4491 24.935 15.444 24.9635C15.4297 25.0419 15.4432 25.1152 15.4868 25.1818C15.5282 25.2455 15.5699 25.3093 15.615 25.37C15.6622 25.4338 15.7281 25.4678 15.8069 25.4821C15.9189 25.5022 16.0284 25.4883 16.1379 25.4671C16.3346 25.429 16.5195 25.3587 16.6979 25.2686C16.8077 25.2129 16.9117 25.1485 17.0121 25.0771C17.0538 25.0474 17.093 25.0101 17.149 25.0038H17.1476ZM29.3706 30.4717C29.3882 30.4695 29.4405 30.4651 29.4922 30.4552C29.6486 30.4256 29.7958 30.3696 29.9368 30.2959C30.2169 30.1495 30.4894 29.9902 30.7512 29.8118C31.1632 29.5306 31.5496 29.2178 31.9213 28.8864C32.5914 28.2891 33.2158 27.6479 33.7776 26.9469C34.0266 26.636 34.2643 26.3163 34.4851 25.9849C34.5426 25.8988 34.6125 25.8355 34.7067 25.7934C34.8293 25.7381 34.9491 25.6762 35.0703 25.6183C35.4662 25.4294 35.8628 25.2411 36.2587 25.0522C36.3059 25.0295 36.3535 25.006 36.3975 24.9775C36.4147 24.9661 36.4235 24.9401 36.4337 24.9196C36.4407 24.9061 36.4224 24.8819 36.4077 24.8822C36.3901 24.8826 36.3722 24.8811 36.3553 24.8841C36.1477 24.92 35.9437 24.9712 35.7438 25.0383C35.5105 25.1166 35.2853 25.2144 35.0604 25.314C35.0231 25.3305 34.9853 25.3455 34.9473 25.3602C34.9436 25.3616 34.9366 25.3569 34.9326 25.3536C34.9293 25.3506 34.9249 25.3437 34.9264 25.3407C34.9381 25.314 34.9487 25.2869 34.9637 25.262C35.0656 25.091 35.1681 24.9207 35.2703 24.7497C35.3062 24.6893 35.3428 24.6292 35.3754 24.5673C35.3885 24.542 35.394 24.5124 35.3988 24.4838C35.4054 24.4439 35.3743 24.3967 35.3358 24.3908C35.3018 24.3857 35.2662 24.3853 35.2314 24.3864C35.2073 24.3871 35.186 24.4007 35.1732 24.4212C35.1428 24.471 35.119 24.5256 35.0839 24.5717C35.0124 24.6655 34.9561 24.768 34.8964 24.8683C34.7828 25.0595 34.6664 25.2496 34.5587 25.444C34.5023 25.5458 34.4287 25.622 34.324 25.6707C34.2921 25.6853 34.2621 25.704 34.2313 25.7205C33.5256 26.1032 32.8448 26.5262 32.1904 26.9913C32.0615 27.0828 31.9348 27.1773 31.8044 27.2666C31.3265 27.5959 30.8688 27.9507 30.433 28.3342C30.1382 28.5934 29.8518 28.8611 29.5951 29.1596C29.4687 29.3064 29.3479 29.457 29.245 29.6207C29.2047 29.6847 29.1692 29.7525 29.1351 29.8202C29.0948 29.9004 29.0765 29.9843 29.0985 30.0751C29.108 30.1147 29.1051 30.1568 29.1113 30.1971C29.1194 30.2491 29.1289 30.3007 29.1406 30.352C29.1505 30.3945 29.1794 30.4223 29.2168 30.4435C29.2538 30.4644 29.2933 30.4714 29.3702 30.4714L29.3706 30.4717ZM20.36 24.3663C20.4449 24.337 20.5303 24.3003 20.6248 24.3483C20.6431 24.3578 20.6694 24.3278 20.6665 24.3058C20.6584 24.2403 20.6321 24.1817 20.5925 24.1304C20.5753 24.1084 20.5493 24.0901 20.5233 24.0791C20.4746 24.0583 20.423 24.0495 20.3691 24.0553C20.264 24.0663 20.1608 24.0843 20.0623 24.1235C19.9861 24.1535 19.9103 24.1839 19.8341 24.2139C19.4965 24.3468 19.2072 24.5516 18.9556 24.8101C18.9028 24.8643 18.8582 24.9269 18.8153 24.9892C18.7754 25.047 18.7494 25.113 18.7351 25.1825C18.7219 25.2477 18.727 25.3103 18.7637 25.3682C18.7886 25.4078 18.8138 25.4473 18.8358 25.4883C18.8805 25.5729 18.9519 25.6158 19.0446 25.6297C19.15 25.6458 19.254 25.6388 19.3588 25.622C19.5979 25.5835 19.8268 25.5187 20.0282 25.3781C20.0857 25.3378 20.1417 25.2957 20.1974 25.2529C20.3256 25.1547 20.4285 25.0379 20.472 24.8779C20.4735 24.8724 20.4768 24.8672 20.4797 24.8621C20.4827 24.857 20.486 24.8522 20.4889 24.8471C20.4984 24.8295 20.5153 24.8218 20.5325 24.8255C20.6291 24.8475 20.7236 24.8782 20.8247 24.8815C21.0481 24.8888 21.2682 24.8698 21.4865 24.8204C21.7325 24.7647 21.9669 24.6739 22.205 24.594C22.265 24.5739 22.321 24.5391 22.3771 24.508C22.4174 24.4856 22.4294 24.441 22.4111 24.4025C22.3917 24.3626 22.3544 24.3436 22.309 24.3564C22.2471 24.3736 22.1863 24.3945 22.1251 24.4135C21.9633 24.464 21.8014 24.5138 21.6337 24.5417C21.5011 24.5636 21.3685 24.5871 21.2371 24.6134C21.0009 24.6607 20.7716 24.6248 20.5449 24.5582C20.4764 24.538 20.4182 24.4988 20.3772 24.4377C20.3636 24.4175 20.3567 24.3963 20.3618 24.3652L20.36 24.3663ZM33.649 25.4114C33.9017 25.4144 34.1343 25.3444 34.3467 25.2085C34.4602 25.136 34.5726 25.0621 34.6851 24.9877C34.7092 24.9716 34.7312 24.9518 34.7532 24.9332C34.7671 24.9214 34.7737 24.8811 34.7612 24.8676C34.7506 24.8559 34.7341 24.8453 34.7187 24.8427C34.677 24.8357 34.6389 24.8515 34.6001 24.8665C34.4199 24.9357 34.2397 25.0057 34.0581 25.0712C33.9482 25.1108 33.8354 25.1426 33.7238 25.1774C33.6381 25.2045 33.5502 25.2023 33.4626 25.1924C33.4117 25.1869 33.3759 25.1576 33.3586 25.1097C33.3451 25.0712 33.3345 25.0317 33.3246 24.9921C33.3147 24.9522 33.3092 24.9115 33.2982 24.872C33.2902 24.8442 33.2795 24.816 33.2638 24.7922C33.225 24.7336 33.184 24.6764 33.1418 24.6204C33.1078 24.5746 33.0594 24.5582 33.0031 24.5596C32.9258 24.5618 32.8525 24.5827 32.7811 24.6098C32.6551 24.6574 32.5299 24.7068 32.4058 24.7585C32.2113 24.8394 32.0183 24.9233 31.8242 25.0053C31.8202 25.0071 31.8132 25.0046 31.8088 25.002C31.7997 24.9965 31.8019 24.9877 31.8154 24.9786C32.0011 24.8555 32.1963 24.7497 32.3984 24.6567C32.5207 24.6003 32.6453 24.5494 32.7756 24.5135C32.8954 24.4801 33.0151 24.456 33.136 24.5076C33.1411 24.5098 33.1477 24.5105 33.1532 24.5098C33.1583 24.5091 33.1653 24.5065 33.1675 24.5025C33.1726 24.493 33.1814 24.4794 33.1785 24.4725C33.1301 24.3637 33.0492 24.2945 32.9302 24.2718C32.8719 24.2608 32.8141 24.2597 32.7555 24.2652C32.6204 24.2784 32.4911 24.3143 32.3647 24.3626C31.9714 24.5124 31.6268 24.7427 31.3031 25.0068C31.2537 25.047 31.2134 25.099 31.1713 25.1474C31.1508 25.1708 31.1438 25.2027 31.1599 25.2294C31.1991 25.2946 31.239 25.3594 31.2852 25.4195C31.3188 25.4638 31.3701 25.4858 31.4261 25.4656C31.5693 25.4144 31.7151 25.3708 31.8535 25.3063C32.1564 25.1661 32.4611 25.0302 32.7646 24.8921C32.8719 24.8434 32.9862 24.8174 33.0994 24.7874C33.1096 24.7848 33.132 24.802 33.1378 24.8152C33.147 24.8357 33.147 24.8606 33.1503 24.8837C33.1689 25.0126 33.2103 25.1338 33.2729 25.2477C33.3279 25.3481 33.4117 25.4041 33.5264 25.4111C33.567 25.4136 33.6084 25.4114 33.6494 25.4114H33.649ZM38.5167 25.2122C38.509 25.199 38.4977 25.1888 38.4988 25.1803C38.5013 25.1576 38.5079 25.1349 38.5153 25.113C38.5577 24.9855 38.6002 24.8577 38.6449 24.7306C38.6866 24.6124 38.6628 24.4988 38.6193 24.3882C38.5863 24.3036 38.5145 24.2593 38.4252 24.267C38.3556 24.2732 38.2849 24.2791 38.2186 24.3058C38.1373 24.3384 38.0546 24.3685 37.9744 24.404C37.7173 24.5186 37.4708 24.653 37.2269 24.7933C37.0695 24.8837 36.9127 24.9749 36.7556 25.0661C36.7413 25.0745 36.7274 25.0844 36.7091 25.0752C36.6992 25.0701 36.7025 25.0481 36.7175 25.0291C36.8263 24.891 36.9365 24.7541 37.0431 24.6145C37.1859 24.4281 37.3379 24.2502 37.5052 24.0857C37.5301 24.0612 37.5543 24.0356 37.5767 24.0085C37.6071 23.9718 37.5913 23.8986 37.5455 23.87C37.5327 23.862 37.5111 23.8616 37.4957 23.8653C37.4796 23.8689 37.4642 23.8807 37.4507 23.8916C37.3401 23.9784 37.2313 24.0671 37.1354 24.1707C36.912 24.4117 36.7069 24.6673 36.5201 24.9379C36.4934 24.9764 36.4678 25.0156 36.4447 25.0566C36.337 25.2485 36.3418 25.2477 36.4432 25.4437C36.4579 25.4718 36.489 25.4821 36.5179 25.4667C36.6685 25.388 36.8219 25.3144 36.9676 25.228C37.3353 25.0101 37.7125 24.809 38.0868 24.6028C38.1688 24.5578 38.2541 24.519 38.3398 24.4812C38.371 24.4673 38.4072 24.4633 38.4416 24.4574C38.4702 24.4527 38.5006 24.4856 38.4926 24.5124C38.4636 24.6076 38.4332 24.7021 38.4028 24.7969C38.3688 24.9028 38.3343 25.0086 38.2996 25.1141C38.2552 25.2492 38.3087 25.3543 38.4036 25.4447C38.4248 25.4649 38.4548 25.4729 38.4856 25.4656C38.5544 25.4491 38.6196 25.4231 38.6808 25.3884C38.7826 25.3305 38.884 25.2723 38.9847 25.2126C39.1609 25.1082 39.3374 25.0038 39.5124 24.8973C39.5674 24.8639 39.6183 24.8244 39.6703 24.7863C39.6791 24.7801 39.6838 24.768 39.6904 24.7585C39.7014 24.7435 39.6838 24.705 39.6637 24.7028C39.6465 24.701 39.6271 24.6969 39.6124 24.7028C39.5476 24.7295 39.4832 24.7581 39.4202 24.7889C39.2572 24.8687 39.0946 24.9496 38.9327 25.0313C38.7969 25.1001 38.6541 25.1518 38.5153 25.2122H38.5167ZM35.5596 23.4445C35.5658 23.4423 35.5892 23.4379 35.6083 23.4262C35.698 23.3716 35.7881 23.3182 35.8745 23.2592C36.0148 23.1633 36.14 23.0505 36.2345 22.9069C36.2502 22.8827 36.2649 22.8571 36.2762 22.8307C36.2902 22.7974 36.2942 22.7612 36.2729 22.73C36.2341 22.6725 36.192 22.6169 36.1506 22.5608C36.1411 22.5477 36.1147 22.5436 36.1038 22.5524C36.0811 22.5704 36.058 22.5883 36.0367 22.6073C36.0126 22.6293 36.0074 22.6546 36.0228 22.685C36.0367 22.7125 36.0382 22.7428 36.0166 22.7666C35.8793 22.9172 35.7467 23.0728 35.5896 23.2039C35.5493 23.2372 35.5112 23.2735 35.4742 23.3105C35.4629 23.3218 35.4567 23.3412 35.4537 23.3577C35.4468 23.3984 35.4991 23.4493 35.5592 23.4449L35.5596 23.4445ZM19.224 22.733C19.1918 22.7355 19.1735 22.7597 19.1519 22.7787C19.1292 22.7992 19.1127 22.8238 19.1255 22.8556C19.1427 22.8981 19.1372 22.9333 19.1053 22.9681C18.9589 23.1277 18.816 23.2907 18.6461 23.4266C18.619 23.4482 18.5948 23.4742 18.5725 23.5013C18.5575 23.5199 18.5586 23.5441 18.5648 23.5679C18.5776 23.6174 18.6417 23.6393 18.6772 23.6236C18.6879 23.6188 18.6999 23.6163 18.7095 23.61C18.804 23.5514 18.9003 23.4954 18.9915 23.4324C19.1174 23.3456 19.231 23.2442 19.3188 23.1175C19.3452 23.0794 19.3661 23.0369 19.3877 22.9959C19.3987 22.9747 19.402 22.9494 19.3877 22.9289C19.3448 22.8666 19.3005 22.8051 19.2555 22.7443C19.25 22.737 19.2346 22.7366 19.224 22.733ZM29.3102 22.9604C29.3072 22.9494 29.3069 22.9366 29.301 22.927C29.2611 22.8626 29.2245 22.7956 29.1685 22.7428C29.1545 22.7297 29.1355 22.7282 29.1201 22.7374C29.1003 22.7491 29.0824 22.7648 29.0648 22.7798C29.0414 22.8003 29.0271 22.8256 29.0403 22.8571C29.0582 22.9003 29.0494 22.9351 29.0183 22.9692C28.8722 23.1288 28.7286 23.2914 28.5591 23.4277C28.532 23.4493 28.5074 23.4756 28.4862 23.5027C28.4716 23.5214 28.4719 23.5459 28.48 23.5697C28.4961 23.6152 28.5507 23.6412 28.5931 23.6228C28.6038 23.6181 28.6155 23.6155 28.6254 23.6093C28.7198 23.5507 28.8162 23.4947 28.9073 23.4313C29.033 23.3442 29.1465 23.2427 29.234 23.1156C29.2604 23.0776 29.2805 23.0351 29.3025 22.9937C29.3076 22.9838 29.308 22.9714 29.3105 22.96L29.3102 22.9604Z" fill="white"/>
<path fill-rule="evenodd" clip-rule="evenodd" d="M13.892 24.8373C13.8532 24.838 13.8305 24.8669 13.803 24.8874C13.6909 24.9706 13.5807 25.0566 13.4661 25.1361C13.3321 25.2291 13.1903 25.3093 13.0438 25.3811C12.9702 25.4173 12.8937 25.4437 12.8157 25.4668C12.7252 25.4932 12.6436 25.4752 12.567 25.4228C12.5183 25.3895 12.4788 25.3474 12.4476 25.2976C12.3942 25.2126 12.381 25.1222 12.4242 25.0314C12.492 24.89 12.5663 24.7516 12.6362 24.6113C12.6333 24.6069 12.6319 24.6025 12.6293 24.5989C12.6286 24.5978 12.6253 24.5981 12.6231 24.5981L12.641 24.6139C12.6201 24.6011 12.5971 24.5941 12.5755 24.608C12.5213 24.6428 12.4678 24.6783 12.4151 24.7153C12.1851 24.8772 11.954 25.0369 11.7105 25.1778C11.5786 25.254 11.4457 25.328 11.3065 25.3906C11.1992 25.4386 11.0886 25.4752 10.9733 25.499C10.9033 25.5133 10.844 25.4939 10.8008 25.439C10.7572 25.384 10.7195 25.3243 10.68 25.2665C10.6404 25.2086 10.6367 25.1449 10.6591 25.0815C10.6803 25.0207 10.7081 24.9625 10.7323 24.9032C10.7338 24.8999 10.7301 24.8926 10.7268 24.8896C10.7232 24.8863 10.7158 24.8823 10.7122 24.8838C10.6854 24.8951 10.6583 24.9054 10.6334 24.9197C10.3331 25.0907 10.0263 25.2489 9.71315 25.3946C9.43666 25.5235 9.15139 25.6286 8.85549 25.7026C8.79323 25.7184 8.73024 25.7341 8.66652 25.7418C8.61489 25.748 8.56142 25.7451 8.50942 25.7407C8.45449 25.7359 8.40944 25.7085 8.37758 25.6627C8.34755 25.6195 8.31936 25.5748 8.28859 25.532C8.25124 25.4796 8.24428 25.4217 8.27065 25.3657C8.32558 25.2493 8.37319 25.1291 8.4468 25.0222C8.52626 24.9065 8.6072 24.7915 8.68703 24.6758C8.70681 24.6472 8.73427 24.623 8.73903 24.586C8.735 24.5831 8.73061 24.5773 8.72695 24.5776C8.52443 24.5959 7.24965 24.9896 6.886 25.146C6.86586 25.1548 6.84938 25.1713 6.82961 25.1852C6.84426 25.2291 6.85707 25.2679 6.87026 25.3067C6.90248 25.4012 6.92336 25.4979 6.93618 25.5972C6.96218 25.7953 6.92848 25.982 6.84023 26.1597C6.76149 26.3182 6.65749 26.4596 6.53554 26.5874C6.40151 26.728 6.25209 26.85 6.08767 26.9529C5.60353 27.2561 5.08791 27.489 4.54189 27.6556C4.33461 27.7186 4.12734 27.7812 3.91237 27.8135C3.79079 27.8318 3.66921 27.8494 3.54689 27.8618C3.41066 27.8761 3.27883 27.8515 3.15065 27.8036C3.09426 27.7823 3.04555 27.7501 3.01076 27.7014C2.95656 27.6252 2.90383 27.5476 2.85439 27.4681C2.80788 27.3931 2.80825 27.315 2.84487 27.2334C2.89797 27.1147 2.96645 27.0067 3.05324 26.91C3.19496 26.7525 3.3539 26.6141 3.52748 26.4933C3.89772 26.2355 4.27932 25.996 4.68361 25.7938C5.08681 25.592 5.49697 25.406 5.91371 25.2335C6.03273 25.1844 6.15432 25.142 6.27443 25.0962C6.33998 25.0713 6.40517 25.0456 6.47035 25.0193C6.49379 25.0098 6.50075 24.9768 6.48244 24.9621C6.42788 24.9182 6.37331 24.8739 6.31765 24.8314C6.01882 24.6051 5.71889 24.3802 5.42079 24.1532C5.15969 23.9543 4.90883 23.7427 4.68068 23.5061C4.60781 23.4303 4.53786 23.3512 4.47194 23.2692C4.39797 23.1769 4.34816 23.0718 4.3152 22.9575C4.25368 22.7455 4.2881 22.5528 4.41957 22.376C4.51479 22.2478 4.63051 22.1405 4.76015 22.0486C5.04689 21.8446 5.34426 21.6589 5.66103 21.504C6.34108 21.1715 7.0486 20.9108 7.77443 20.698C8.02712 20.624 8.2809 20.5522 8.54018 20.5057C8.73024 20.4717 8.92141 20.4446 9.11257 20.4164C9.21108 20.4021 9.30996 20.3904 9.40883 20.3808C9.6487 20.3581 9.88893 20.3662 10.1284 20.3871C10.2976 20.4017 10.465 20.4274 10.6268 20.4841C10.7294 20.52 10.8151 20.576 10.8869 20.6566C10.9612 20.7405 11.0231 20.832 11.0755 20.9309C11.1227 21.0199 11.1223 21.1111 11.0916 21.203C11.067 21.2755 11.026 21.34 10.9791 21.4007C10.8744 21.5362 10.7484 21.6483 10.6093 21.7483C10.2995 21.9713 9.97097 22.1621 9.62746 22.328C9.61171 22.3357 9.59706 22.3459 9.58315 22.3562C9.58022 22.3584 9.58022 22.3668 9.58168 22.3719C9.58278 22.376 9.58754 22.3815 9.5912 22.3818C9.62014 22.384 9.64943 22.387 9.67836 22.3862C9.81313 22.3826 9.94753 22.3749 10.0823 22.3745C10.2932 22.3738 10.5038 22.376 10.7147 22.3811C10.7832 22.3826 10.8404 22.3657 10.8916 22.3207C11.0191 22.2082 11.1472 22.0969 11.2761 21.9859C11.4625 21.8252 11.6489 21.6648 11.8361 21.5051C11.8983 21.452 11.9643 21.4029 12.0408 21.3707C12.0639 21.3608 12.1074 21.3744 12.1177 21.3974C12.2199 21.6256 12.2404 21.6047 12.0701 21.7743C11.8958 21.9479 11.724 22.124 11.5515 22.2994C11.527 22.3243 11.5036 22.3507 11.4823 22.3782C11.4772 22.3848 11.4812 22.399 11.4831 22.4093C11.4838 22.413 11.4911 22.4173 11.4959 22.4177C11.6182 22.4287 11.7405 22.443 11.8632 22.4496C12.1382 22.4646 12.4118 22.4913 12.6857 22.521C12.9014 22.5444 13.1142 22.5843 13.3266 22.625C13.3793 22.6349 13.4287 22.6514 13.476 22.6744C13.525 22.6982 13.5613 22.7359 13.5781 22.7894C13.5957 22.8454 13.61 22.9018 13.6071 22.9612C13.6063 22.9725 13.5767 22.9912 13.5661 22.9861C13.5503 22.9787 13.5324 22.9736 13.5203 22.9623C13.4716 22.9158 13.4119 22.8938 13.3474 22.8832C13.0526 22.8348 12.7582 22.7894 12.4597 22.7667C12.051 22.7352 11.6416 22.7147 11.2326 22.6865C11.1619 22.6818 11.1091 22.7052 11.0579 22.7499C10.877 22.9077 10.6964 23.0663 10.5115 23.2193C10.3357 23.3651 10.1544 23.5043 9.97609 23.6471C9.93508 23.68 9.89223 23.7119 9.85744 23.7507C9.72341 23.8979 9.5923 24.0481 9.46047 24.1971C9.45314 24.2056 9.44875 24.2169 9.44399 24.2275C9.43886 24.2392 9.44252 24.2517 9.45644 24.2546C9.50222 24.2641 9.54836 24.2704 9.59414 24.2803C9.61025 24.2839 9.62673 24.2931 9.63954 24.3037C9.64724 24.3099 9.64907 24.3238 9.65163 24.3345C9.65236 24.3374 9.64577 24.3443 9.64174 24.3454C9.56813 24.3641 9.49489 24.3832 9.42092 24.4C9.30129 24.4274 9.1996 24.4878 9.11586 24.5813C9.05727 24.6468 9.00051 24.7142 8.94008 24.7779C8.78627 24.9402 8.65737 25.1214 8.53359 25.3067C8.49477 25.3646 8.46657 25.4298 8.43544 25.4924C8.4186 25.5265 8.43654 25.5514 8.47243 25.5481C8.61855 25.5342 8.76137 25.503 8.902 25.4624C9.12209 25.399 9.33229 25.31 9.53994 25.2159C9.84389 25.0782 10.1453 24.9354 10.4474 24.7941C10.6437 24.7025 10.8378 24.6058 11.0363 24.5198C11.1026 24.4912 11.1579 24.4535 11.2113 24.4081C11.3314 24.3052 11.453 24.2041 11.575 24.1034C11.5973 24.0851 11.6233 24.0704 11.6489 24.0569C11.6647 24.0488 11.6837 24.0503 11.6973 24.0642C11.7427 24.1107 11.776 24.1653 11.802 24.222C11.7958 24.2356 11.7936 24.2491 11.7855 24.255C11.6636 24.3469 11.5559 24.4546 11.4468 24.5608C11.3084 24.6955 11.1732 24.834 11.0392 24.9731C10.9744 25.0405 10.9125 25.1112 10.8784 25.2009C10.8733 25.2148 10.8909 25.2357 10.9077 25.2335C10.9304 25.2302 10.955 25.2295 10.9758 25.2207C11.089 25.1727 11.2029 25.1266 11.3131 25.0727C11.4497 25.0061 11.5841 24.9339 11.7178 24.8614C11.9595 24.73 12.1997 24.5963 12.4403 24.4626C12.5579 24.3974 12.6751 24.3304 12.7923 24.2649C12.823 24.2477 12.8541 24.2319 12.8856 24.2165C12.9054 24.207 12.9373 24.2125 12.9505 24.2286C12.9724 24.2557 12.9937 24.2836 13.0131 24.3125C13.0266 24.3326 13.0307 24.3564 13.0178 24.3788C12.9834 24.4399 12.9479 24.5007 12.9135 24.5619C12.8073 24.7505 12.7003 24.9391 12.5956 25.1288C12.5762 25.1643 12.563 25.2035 12.5491 25.2416C12.5392 25.269 12.5641 25.2994 12.5938 25.3035C12.6414 25.3093 12.6872 25.3031 12.7326 25.2903C12.8571 25.2558 12.9761 25.2075 13.0896 25.1452C13.2899 25.035 13.4844 24.916 13.6741 24.7886C13.7374 24.7461 13.8015 24.7054 13.866 24.6648C13.8858 24.6523 13.9066 24.6406 13.9286 24.6348C13.9433 24.6311 13.9623 24.6362 13.9766 24.6428C13.9938 24.6505 13.9989 24.6915 13.9872 24.7062C13.9652 24.7333 13.9422 24.7593 13.9191 24.7856C13.9037 24.8028 13.8854 24.8186 13.8854 24.8446L13.8913 24.8384L13.892 24.8373ZM8.97963 24.3125C9.0071 24.2836 9.02797 24.2634 9.04738 24.2414C9.49269 23.7361 9.95156 23.2435 10.4269 22.766C10.4474 22.7455 10.4668 22.7231 10.4859 22.7012C10.4892 22.6975 10.4884 22.6905 10.4892 22.6847C10.491 22.6719 10.4848 22.6627 10.4701 22.6609C10.4295 22.6557 10.3888 22.6488 10.3482 22.6484C10.1724 22.6462 9.9966 22.64 9.82119 22.647C9.52272 22.659 9.22426 22.6656 8.92543 22.6645C8.85988 22.6645 8.79873 22.6741 8.7372 22.6971C8.38601 22.8279 8.02712 22.9333 7.66713 23.0362C7.36245 23.1234 7.05373 23.1853 6.73696 23.2091C6.61867 23.2179 6.50295 23.2102 6.38723 23.1919C6.30519 23.1787 6.22902 23.1476 6.1675 23.0893C6.09902 23.0245 6.06862 22.9454 6.08876 22.8513C6.09059 22.8432 6.10561 22.8315 6.11367 22.8323C6.1426 22.8352 6.17189 22.8396 6.19899 22.8498C6.28285 22.8813 6.37075 22.889 6.45827 22.8865C6.58095 22.8832 6.70436 22.878 6.82631 22.8652C7.15883 22.8308 7.48586 22.7667 7.80849 22.6799C8.20436 22.573 8.59108 22.439 8.97158 22.2866C9.45644 22.0925 9.92189 21.8614 10.3507 21.5597C10.4804 21.4685 10.6041 21.3711 10.7188 21.2616C10.7829 21.2001 10.836 21.1308 10.8773 21.0525C10.9048 21.0008 10.9275 20.9466 10.9301 20.8866C10.9315 20.8496 10.9209 20.8181 10.888 20.7961C10.8133 20.7471 10.7301 20.7203 10.6441 20.7016C10.5983 20.6918 10.5521 20.6841 10.506 20.676C10.2453 20.631 9.98268 20.6156 9.71865 20.6401C9.56704 20.6544 9.41616 20.6738 9.26491 20.6918C8.96242 20.7273 8.66359 20.784 8.36843 20.8595C7.63601 21.047 6.92153 21.2861 6.22939 21.5919C5.85366 21.7578 5.49294 21.9501 5.1454 22.168C5.04653 22.2298 4.95241 22.3002 4.85756 22.369C4.77663 22.428 4.70778 22.5001 4.64479 22.5777C4.59279 22.6418 4.55104 22.7118 4.52614 22.7912C4.51186 22.837 4.5093 22.8821 4.51955 22.9293C4.53493 22.9993 4.56496 23.0619 4.60158 23.1223C4.68398 23.2582 4.78578 23.379 4.89492 23.4936C5.0447 23.6507 5.20876 23.7921 5.37685 23.9291C5.7903 24.2656 6.23598 24.5597 6.65419 24.89C6.68459 24.9142 6.71718 24.9153 6.75307 24.9028C6.96913 24.8296 7.18447 24.7545 7.40163 24.6846C7.91433 24.519 8.43325 24.3769 8.97963 24.3121V24.3125ZM3.31032 27.5945C3.34658 27.5915 3.38759 27.5897 3.42824 27.5853C3.69594 27.5546 3.95925 27.5044 4.21743 27.4249C4.62026 27.3008 5.0121 27.1488 5.39186 26.9668C5.67751 26.8302 5.94704 26.6669 6.20156 26.4783C6.33376 26.3801 6.45351 26.2692 6.55861 26.1424C6.64504 26.0377 6.71169 25.9223 6.7549 25.7931C6.79116 25.685 6.79848 25.5755 6.7842 25.4642C6.77431 25.388 6.74758 25.317 6.71169 25.2496C6.70107 25.2298 6.6725 25.2152 6.65309 25.2218C6.60329 25.239 6.55312 25.2544 6.50478 25.2753C6.29567 25.3661 6.08657 25.4565 5.87892 25.5503C5.39919 25.7663 4.92787 25.9993 4.46791 26.2552C4.17641 26.4175 3.89443 26.5947 3.63259 26.8024C3.49489 26.9115 3.36452 27.0287 3.24623 27.159C3.17079 27.2418 3.1089 27.3326 3.05727 27.4322C2.99648 27.5502 3.01955 27.5546 3.13161 27.5773C3.18874 27.5886 3.2477 27.5893 3.31069 27.5952L3.31032 27.5945Z" fill="black"/>
<path fill-rule="evenodd" clip-rule="evenodd" d="M29.3711 30.4723C29.2942 30.4723 29.2547 30.4653 29.2177 30.4444C29.1803 30.4232 29.151 30.3953 29.1415 30.3529C29.1298 30.3016 29.1199 30.25 29.1122 30.198C29.106 30.1577 29.1093 30.1152 29.0994 30.076C29.0771 29.9852 29.0957 29.9013 29.136 29.8211C29.1701 29.7534 29.2056 29.6856 29.2459 29.6215C29.3488 29.4575 29.47 29.307 29.596 29.1605C29.8527 28.8624 30.1391 28.5943 30.4339 28.335C30.8697 27.952 31.3274 27.5968 31.8053 27.2675C31.9353 27.1778 32.0624 27.0837 32.1913 26.9922C32.8461 26.5271 33.5265 26.1045 34.2322 25.7214C34.263 25.7046 34.293 25.6862 34.3249 25.6716C34.4296 25.6233 34.5032 25.5467 34.5596 25.4449C34.6673 25.2505 34.7837 25.0608 34.8973 24.8692C34.9569 24.7685 35.0133 24.6663 35.0848 24.5726C35.1199 24.5265 35.1433 24.4719 35.1741 24.4221C35.1866 24.4016 35.2082 24.388 35.2323 24.3873C35.2671 24.3862 35.3023 24.3862 35.3367 24.3917C35.3752 24.3975 35.4063 24.4452 35.3997 24.4847C35.3949 24.5133 35.3891 24.5429 35.3763 24.5682C35.3437 24.6305 35.307 24.6902 35.2712 24.7506C35.169 24.9216 35.0664 25.0919 34.9646 25.2629C34.95 25.2878 34.939 25.3153 34.9273 25.3416C34.9258 25.3446 34.9302 25.3512 34.9335 25.3545C34.9375 25.3581 34.9445 25.3625 34.9482 25.361C34.9862 25.3464 35.024 25.3314 35.0613 25.3149C35.2858 25.2153 35.511 25.1175 35.7447 25.0391C35.9446 24.9721 36.1486 24.9209 36.3562 24.885C36.3735 24.882 36.391 24.8835 36.4086 24.8831C36.4233 24.8831 36.4416 24.9069 36.4346 24.9205C36.4244 24.941 36.4156 24.967 36.3984 24.9784C36.3544 25.0069 36.3072 25.0304 36.2596 25.0531C35.8637 25.242 35.4671 25.4303 35.0712 25.6192C34.9496 25.6771 34.8302 25.739 34.7076 25.7943C34.6134 25.8368 34.5431 25.8997 34.486 25.9858C34.2652 26.3172 34.0279 26.6369 33.7785 26.9478C33.2167 27.6488 32.5923 28.29 31.9222 28.8873C31.5501 29.2187 31.1637 29.5315 30.7521 29.8127C30.4906 29.9914 30.2182 30.1504 29.9377 30.2968C29.797 30.3704 29.6495 30.4265 29.4931 30.4561C29.4414 30.466 29.3891 30.4704 29.3715 30.4726L29.3711 30.4723ZM29.3755 30.1244C29.4744 30.1229 29.5484 30.1104 29.6227 30.0907C29.7366 30.0606 29.8432 30.013 29.9486 29.9625C30.1973 29.8431 30.4298 29.6963 30.6514 29.5329C31.033 29.2517 31.4043 28.9569 31.7618 28.6449C32.5758 27.9344 33.2991 27.1383 33.9726 26.2953C33.9836 26.2817 33.9953 26.2682 34.0033 26.2528C34.0077 26.2447 34.0096 26.2271 34.0055 26.2246C33.9975 26.2191 33.9817 26.2162 33.9737 26.2205C33.8517 26.2898 33.7298 26.359 33.6089 26.4307C33.1358 26.7113 32.67 27.0031 32.2151 27.3126C31.6288 27.7114 31.0769 28.1549 30.5375 28.6137C30.2922 28.8225 30.0636 29.0495 29.8461 29.2872C29.8025 29.3348 29.7604 29.3835 29.715 29.4289C29.5429 29.601 29.429 29.8123 29.3136 30.0229C29.303 30.0427 29.2983 30.0665 29.2953 30.0888C29.2942 30.0965 29.3045 30.1123 29.3118 30.1141C29.3396 30.1207 29.3689 30.1229 29.3755 30.124V30.1244Z" fill="black"/>
<path fill-rule="evenodd" clip-rule="evenodd" d="M17.1487 25.0046C17.0934 25.0098 17.0542 25.0468 17.0124 25.0764C16.9121 25.1478 16.8081 25.2123 16.6982 25.2679C16.5199 25.358 16.335 25.4283 16.1383 25.4664C16.0288 25.4877 15.9193 25.5012 15.8072 25.4814C15.7285 25.4675 15.6626 25.4335 15.6154 25.3694C15.5703 25.3086 15.5286 25.2445 15.4872 25.1812C15.4436 25.1145 15.43 25.0413 15.4443 24.9629C15.4495 24.9343 15.4575 24.9058 15.4615 24.8772C15.463 24.8666 15.4582 24.8457 15.4553 24.8457C15.4396 24.845 15.4213 24.8442 15.4084 24.8519C15.3685 24.8757 15.3308 24.9043 15.2916 24.9296C15.1437 25.0237 14.9972 25.12 14.8467 25.2097C14.676 25.3115 14.4988 25.402 14.3094 25.465C14.2205 25.4946 14.1304 25.5195 14.0359 25.5221C14.007 25.5228 13.9777 25.5221 13.9487 25.5199C13.8993 25.5159 13.8575 25.4924 13.8301 25.4529C13.7865 25.391 13.7469 25.3258 13.7089 25.2603C13.6876 25.2236 13.6876 25.183 13.699 25.1412C13.7133 25.0892 13.7378 25.0431 13.7707 25.0021C13.8037 24.9611 13.8411 24.9241 13.8744 24.8834C13.8846 24.871 13.8872 24.8527 13.8931 24.8369L13.8876 24.8431C13.8989 24.842 13.9128 24.8453 13.9209 24.8398C13.9637 24.8095 14.0055 24.7769 14.0472 24.7454C14.3702 24.5015 14.7295 24.3389 15.1261 24.2572C15.2078 24.2404 15.2891 24.2433 15.3707 24.2502C15.4191 24.2543 15.4586 24.2803 15.496 24.3096C15.5278 24.3345 15.5439 24.3773 15.5919 24.389C15.6835 24.3513 15.7552 24.2872 15.8146 24.2041C16.0215 23.9119 16.2537 23.6401 16.5038 23.3849C16.6634 23.2219 16.8301 23.0652 16.9989 22.9114C17.3889 22.5562 17.8016 22.228 18.2345 21.9263C18.3015 21.8794 18.3726 21.838 18.4425 21.7959C18.4663 21.7816 18.5073 21.7908 18.5216 21.8135C18.5436 21.8475 18.5626 21.8831 18.578 21.9102C18.5791 21.9541 18.5553 21.9731 18.5366 21.9951C18.2634 22.317 17.9661 22.6158 17.6647 22.911C17.3761 23.1937 17.0846 23.4739 16.7902 23.7511C16.6667 23.8676 16.5338 23.9738 16.4038 24.0833C16.2826 24.1851 16.1603 24.285 16.0372 24.3843C15.9728 24.4363 15.9193 24.4974 15.8754 24.5678C15.8069 24.6769 15.7351 24.7842 15.6835 24.9028C15.6436 24.994 15.6073 25.087 15.6077 25.1892C15.6077 25.2159 15.6311 25.2474 15.6575 25.2544C15.663 25.2559 15.6685 25.2588 15.6743 25.2595C15.7794 25.2745 15.8842 25.2756 15.9882 25.2511C16.1713 25.2086 16.3467 25.1442 16.5199 25.0724C16.6876 25.0032 16.8561 24.9365 17.0249 24.8699C17.0736 24.8508 17.1165 24.8721 17.1337 24.9255C17.1425 24.9523 17.1414 24.9827 17.1446 25.0112L17.1479 25.0054L17.1487 25.0046ZM13.9183 25.2983C13.9388 25.2983 13.963 25.3031 13.985 25.2976C14.0472 25.2819 14.1091 25.2639 14.1699 25.2434C14.2867 25.2039 14.3962 25.1482 14.5054 25.0918C14.8287 24.9255 15.1294 24.7223 15.4286 24.5172C15.4333 24.5139 15.4385 24.5103 15.4414 24.5055C15.4465 24.496 15.4517 24.4861 15.4535 24.4758C15.4553 24.4637 15.4458 24.4568 15.4308 24.4575C15.3956 24.459 15.3601 24.4561 15.326 24.4626C15.1536 24.4952 14.9822 24.5341 14.8207 24.6047C14.5621 24.7183 14.323 24.8644 14.1011 25.0387C14.0223 25.1006 13.9535 25.1724 13.9008 25.2577C13.8956 25.2661 13.8986 25.28 13.9004 25.291C13.9008 25.2939 13.9106 25.2954 13.9187 25.2987L13.9183 25.2983Z" fill="black"/>
<path fill-rule="evenodd" clip-rule="evenodd" d="M27.0618 25.0056C26.9944 25.0144 26.9479 25.0613 26.8966 25.0979C26.7578 25.1971 26.6073 25.2748 26.4517 25.3433C26.3169 25.4026 26.1767 25.4432 26.0327 25.4711C25.9291 25.4912 25.8244 25.5015 25.7185 25.482C25.6398 25.4678 25.5742 25.4326 25.5274 25.3682C25.4823 25.307 25.4406 25.2429 25.3992 25.1792C25.3556 25.1122 25.3457 25.0386 25.3578 24.9598C25.364 24.9206 25.3897 24.8826 25.3681 24.8412C25.3358 24.8382 25.3135 24.858 25.2897 24.8734C25.1622 24.9565 25.0355 25.0411 24.907 25.1228C24.7536 25.2198 24.5943 25.3066 24.4295 25.3835C24.3284 25.4308 24.224 25.4696 24.116 25.496C24.0482 25.5124 23.9776 25.5198 23.908 25.5238C23.8333 25.5286 23.7703 25.4989 23.7282 25.4341C23.693 25.3802 23.6582 25.326 23.6264 25.27C23.6022 25.2275 23.6 25.1821 23.6146 25.1341C23.6286 25.0884 23.6513 25.0481 23.6787 25.01C23.7234 24.9477 23.778 24.8946 23.8362 24.8452C24.1878 24.5489 24.5869 24.3497 25.0385 24.2582C25.067 24.2523 25.0963 24.2472 25.1253 24.245C25.2586 24.2362 25.3834 24.2501 25.4699 24.3713C25.4849 24.3922 25.5127 24.3926 25.5332 24.3798C25.6032 24.3362 25.668 24.2886 25.7174 24.2197C26.0866 23.7015 26.526 23.2482 27.0028 22.8292C27.3683 22.508 27.7481 22.2052 28.1476 21.9269C28.2099 21.8833 28.2747 21.843 28.3399 21.8038C28.3871 21.7753 28.4241 21.7884 28.4567 21.8408C28.4629 21.8507 28.4688 21.861 28.4739 21.8716C28.4812 21.8873 28.4874 21.9034 28.4929 21.917C28.4944 21.9532 28.4706 21.9723 28.4519 21.9946C28.2556 22.2279 28.0429 22.4462 27.829 22.663C27.4584 23.038 27.0775 23.4027 26.6926 23.7631C26.5729 23.8751 26.4447 23.9777 26.3191 24.0831C26.1979 24.1846 26.0756 24.2849 25.9525 24.3841C25.8881 24.4365 25.8346 24.4973 25.7903 24.5676C25.7218 24.6768 25.65 24.784 25.5984 24.9027C25.5585 24.9939 25.5222 25.0869 25.5222 25.1891C25.5222 25.2158 25.5457 25.2477 25.5717 25.2546C25.5772 25.2561 25.5827 25.259 25.5885 25.2598C25.6936 25.2751 25.7984 25.2759 25.9027 25.2517C26.0858 25.2092 26.2612 25.1448 26.4345 25.073C26.6022 25.0038 26.771 24.9371 26.9395 24.8705C26.9882 24.8511 27.031 24.8723 27.0482 24.9261C27.057 24.9529 27.0559 24.9833 27.0592 25.0118L27.0625 25.006L27.0618 25.0056ZM23.8395 25.3041C23.8706 25.2997 23.9061 25.2982 23.9395 25.2894C24.0698 25.255 24.1936 25.203 24.3152 25.1444C24.6748 24.9708 25.004 24.7471 25.3336 24.5244C25.3384 24.5211 25.3424 24.5167 25.3472 24.5134C25.3644 24.4999 25.375 24.4742 25.3651 24.4691C25.3556 24.4643 25.3457 24.4574 25.3358 24.4574C25.223 24.4545 25.1157 24.4863 25.0088 24.5145C24.6159 24.6171 24.2793 24.8258 23.9688 25.0796C23.9109 25.1268 23.867 25.1916 23.8179 25.2495C23.8117 25.2568 23.8095 25.2722 23.8124 25.2817C23.815 25.2898 23.8278 25.2945 23.8399 25.3037L23.8395 25.3041Z" fill="black"/>
<path fill-rule="evenodd" clip-rule="evenodd" d="M30.0939 25.6225C30.1627 25.6668 30.1869 25.7379 30.21 25.8111C30.2287 25.8704 30.2147 25.9272 30.199 25.9836C30.1829 26.0407 30.1532 26.0912 30.1188 26.1389C30.0708 26.2059 30.0155 26.267 29.9496 26.3165C29.8701 26.3762 29.7903 26.4359 29.7064 26.4893C29.2853 26.7589 28.8349 26.9665 28.3603 27.124C28.2592 27.1573 28.1563 27.176 28.0512 27.184C28.0222 27.1862 27.9926 27.1851 27.964 27.1811C27.9219 27.1756 27.8845 27.1566 27.8607 27.121C27.8314 27.0775 27.8029 27.0324 27.7816 26.9848C27.749 26.9112 27.7527 26.8361 27.7937 26.7654C27.8113 26.735 27.8307 26.7054 27.8523 26.6779C27.9138 26.5995 27.9831 26.5278 28.057 26.4611C28.201 26.3311 28.3566 26.2176 28.5166 26.1085C28.822 25.9005 29.1447 25.7225 29.4717 25.5518C29.5182 25.5276 29.5647 25.5024 29.6098 25.4756C29.6164 25.4716 29.6215 25.4555 29.6189 25.4474C29.616 25.4379 29.605 25.4266 29.5955 25.4244C29.4644 25.3951 29.3322 25.3691 29.2014 25.3387C29.007 25.2936 28.9927 25.2966 28.8726 25.0849C28.8697 25.0798 28.8671 25.0743 28.8664 25.0684C28.8631 25.0446 28.8642 25.0208 28.881 25.0021C28.9407 24.9362 29.0147 24.889 29.0919 24.8469C29.308 24.7297 29.5237 24.6114 29.7409 24.4968C29.9273 24.3983 30.1155 24.3041 30.303 24.2078C30.3239 24.1972 30.3422 24.1837 30.3393 24.1507C30.2407 24.1602 30.1415 24.1661 30.0434 24.1804C29.7713 24.2203 29.4999 24.2642 29.2282 24.3063C29.13 24.3217 29.0315 24.3367 28.9337 24.3539C28.862 24.3664 28.8063 24.3463 28.7719 24.28C28.7583 24.2543 28.7477 24.2272 28.7367 24.2031C28.7667 24.1631 28.8089 24.1595 28.8473 24.1518C29.215 24.08 29.5841 24.0181 29.9566 23.9753C29.9972 23.9705 30.0382 23.9691 30.0792 23.9665C30.2078 23.9581 30.3363 23.9496 30.4649 23.9416C30.5059 23.939 30.5469 23.9365 30.5875 23.9379C30.6308 23.9398 30.6681 23.9603 30.6916 23.9954C30.7271 24.0489 30.7582 24.1053 30.789 24.1617C30.7934 24.1694 30.7882 24.1855 30.7827 24.1946C30.774 24.2093 30.763 24.2247 30.7494 24.2346C30.711 24.2613 30.6721 24.288 30.6311 24.3096C30.3876 24.4374 30.143 24.5631 29.8998 24.6916C29.6515 24.8227 29.404 24.9556 29.156 25.0875C29.13 25.1014 29.1048 25.1157 29.1015 25.1548C29.1392 25.1662 29.1776 25.1823 29.2176 25.1889C29.4259 25.2248 29.6288 25.2797 29.8207 25.3577C29.8734 25.3555 29.9152 25.3347 29.9573 25.3145C30.1001 25.2471 30.2426 25.1783 30.3861 25.1127C30.5246 25.0497 30.6645 24.9897 30.804 24.9296C30.9446 24.8692 31.094 24.8395 31.2438 24.8124C31.2606 24.8095 31.2801 24.8091 31.2954 24.815C31.3101 24.8205 31.3273 24.8337 31.3317 24.8472C31.3361 24.8608 31.3306 24.8817 31.3218 24.8945C31.3126 24.908 31.2962 24.9179 31.2812 24.926C31.1837 24.9794 31.0878 25.0358 30.9878 25.0845C30.7406 25.2054 30.492 25.3226 30.244 25.4416C30.1917 25.4669 30.1404 25.4947 30.0972 25.5167C30.069 25.5617 30.0998 25.5932 30.099 25.6269C30.0935 25.6247 30.0869 25.6236 30.0825 25.6199C30.0261 25.5749 29.9698 25.5709 29.9042 25.6053C29.7541 25.684 29.6002 25.7562 29.4497 25.8345C29.0751 26.0294 28.7202 26.2557 28.3819 26.5084C28.2691 26.5926 28.1592 26.6801 28.0618 26.7819C28.0215 26.824 27.9853 26.8702 27.9479 26.9152C27.9369 26.9288 27.9278 26.9445 27.9215 26.9606C27.9179 26.9702 27.9179 26.9852 27.923 26.9929C27.9281 27.0005 27.9428 27.0071 27.9519 27.0057C28.0739 26.9907 28.1936 26.9669 28.3105 26.9262C28.5152 26.8552 28.7173 26.7779 28.9099 26.6786C29.1282 26.5659 29.3454 26.4512 29.56 26.3315C29.6515 26.2806 29.7368 26.2176 29.8222 26.1561C29.8936 26.1044 29.954 26.04 30.0049 25.9675C30.0705 25.8741 30.1177 25.7756 30.0928 25.6562C30.0906 25.6448 30.0928 25.6328 30.0928 25.621L30.0939 25.6225Z" fill="black"/>
<path fill-rule="evenodd" clip-rule="evenodd" d="M20.3618 24.3661C20.3567 24.3972 20.3637 24.4185 20.3772 24.4386C20.4182 24.4998 20.4768 24.539 20.5449 24.5591C20.7716 24.6257 21.0009 24.6616 21.2371 24.6144C21.3689 24.588 21.5011 24.5646 21.6337 24.5426C21.8014 24.5148 21.9633 24.465 22.1251 24.4144C22.1863 24.3954 22.2474 24.3745 22.309 24.3573C22.3544 24.3445 22.3917 24.3635 22.4111 24.4035C22.4298 24.4419 22.4174 24.4866 22.3771 24.5089C22.3211 24.5401 22.2654 24.5748 22.205 24.595C21.9669 24.6748 21.7326 24.7656 21.4865 24.8213C21.2682 24.8707 21.0481 24.8898 20.8247 24.8825C20.724 24.8792 20.6295 24.8484 20.5325 24.8264C20.5153 24.8224 20.4984 24.8305 20.4889 24.848C20.486 24.8532 20.4827 24.8579 20.4797 24.8631C20.4768 24.8682 20.4735 24.8733 20.4721 24.8788C20.4285 25.0388 20.3256 25.156 20.1974 25.2538C20.1417 25.2963 20.0857 25.3388 20.0282 25.379C19.8268 25.5197 19.5979 25.5845 19.3588 25.6229C19.254 25.6398 19.15 25.6467 19.0446 25.6306C18.9519 25.6167 18.8809 25.5739 18.8358 25.4893C18.8139 25.4479 18.7886 25.4083 18.7637 25.3692C18.7271 25.3113 18.7219 25.2483 18.7351 25.1835C18.7494 25.1139 18.775 25.0484 18.8153 24.9901C18.8582 24.9279 18.9028 24.8653 18.9556 24.8111C19.2072 24.5521 19.4965 24.3478 19.8341 24.2149C19.9103 24.1848 19.9861 24.1544 20.0623 24.1244C20.1608 24.0852 20.2644 24.0673 20.3691 24.0563C20.423 24.0508 20.475 24.0596 20.5233 24.0801C20.5493 24.0911 20.5757 24.1094 20.5925 24.1314C20.6321 24.1826 20.6585 24.2412 20.6665 24.3068C20.6694 24.3291 20.6431 24.3588 20.6248 24.3493C20.5303 24.3013 20.445 24.3379 20.36 24.3672L20.3618 24.3661ZM19.0918 25.4098C19.0918 25.412 19.0918 25.4138 19.0918 25.416C19.1559 25.4105 19.2207 25.4105 19.2837 25.3985C19.4741 25.3626 19.6565 25.3018 19.8264 25.2069C19.9447 25.1414 20.0531 25.063 20.1483 24.9667C20.2062 24.9081 20.2556 24.8436 20.2974 24.7726C20.323 24.7287 20.3256 24.6836 20.3069 24.6378C20.2849 24.5836 20.2611 24.5305 20.2369 24.4774C20.2146 24.4287 20.1882 24.4166 20.1395 24.435C20.063 24.4635 19.9876 24.495 19.9103 24.5217C19.8327 24.5488 19.7583 24.5825 19.6898 24.6276C19.5825 24.6983 19.4752 24.7689 19.3709 24.8444C19.2522 24.9301 19.1445 25.0293 19.046 25.1373C19.0032 25.1846 18.9655 25.2373 18.9314 25.2915C18.8871 25.3618 18.9091 25.405 18.9867 25.4094C19.0215 25.4113 19.0567 25.4094 19.0918 25.4094V25.4098Z" fill="black"/>
<path fill-rule="evenodd" clip-rule="evenodd" d="M33.6507 25.4153C33.6097 25.4153 33.5687 25.4174 33.5277 25.4149C33.4131 25.4079 33.3292 25.3519 33.2743 25.2516C33.2117 25.1373 33.1703 25.0164 33.1516 24.8875C33.1483 24.8645 33.1483 24.8399 33.1391 24.8191C33.1333 24.8062 33.1109 24.7887 33.1007 24.7912C32.9875 24.8213 32.8733 24.8473 32.766 24.896C32.4624 25.034 32.1577 25.1699 31.8548 25.3102C31.7161 25.3742 31.5703 25.4178 31.4275 25.4695C31.3714 25.4896 31.3205 25.4676 31.2865 25.4233C31.2407 25.3632 31.2004 25.2981 31.1612 25.2332C31.1451 25.2065 31.1521 25.1747 31.1726 25.1512C31.2151 25.1029 31.2554 25.0509 31.3044 25.0106C31.6282 24.7465 31.9728 24.5162 32.3661 24.3664C32.4924 24.3185 32.6217 24.2822 32.7568 24.269C32.8158 24.2632 32.8736 24.2646 32.9315 24.2756C33.0505 24.2983 33.1315 24.3675 33.1798 24.4763C33.1831 24.4836 33.1743 24.4968 33.1688 24.5063C33.1666 24.5103 33.1597 24.5129 33.1545 24.5136C33.149 24.5144 33.1424 24.5136 33.1373 24.5114C33.0161 24.4598 32.8967 24.484 32.777 24.5173C32.6466 24.5536 32.5224 24.6045 32.3998 24.6605C32.1976 24.7535 32.0024 24.8593 31.8168 24.9824C31.8032 24.9915 31.8006 25.0003 31.8102 25.0058C31.8146 25.0084 31.8215 25.011 31.8256 25.0091C32.0193 24.9271 32.2126 24.8432 32.4071 24.7623C32.5312 24.7107 32.6565 24.6612 32.7825 24.6136C32.8535 24.5865 32.9271 24.566 33.0044 24.5634C33.0608 24.5616 33.1088 24.5785 33.1432 24.6242C33.1853 24.6806 33.2267 24.7374 33.2651 24.796C33.2809 24.8198 33.2915 24.848 33.2995 24.8758C33.3109 24.915 33.316 24.956 33.3259 24.9959C33.3358 25.0355 33.3461 25.0754 33.36 25.1135C33.3772 25.1615 33.4131 25.1908 33.464 25.1963C33.5515 25.2058 33.6394 25.208 33.7251 25.1812C33.8368 25.1461 33.9496 25.1146 34.0594 25.075C34.2411 25.0099 34.4213 24.9399 34.6014 24.8703C34.6402 24.8553 34.6783 24.8399 34.7201 24.8465C34.7355 24.8491 34.7519 24.8597 34.7626 24.8714C34.775 24.885 34.7681 24.9249 34.7545 24.937C34.7325 24.956 34.7106 24.9754 34.6864 24.9915C34.574 25.0659 34.4615 25.1399 34.348 25.2124C34.1352 25.3482 33.9031 25.4182 33.6504 25.4153H33.6507Z" fill="black"/>
<path fill-rule="evenodd" clip-rule="evenodd" d="M38.5169 25.2124C38.6557 25.152 38.7985 25.1004 38.9344 25.0315C39.0962 24.9495 39.2588 24.8689 39.4218 24.7891C39.4848 24.7583 39.5492 24.7298 39.6141 24.703C39.6287 24.6968 39.6485 24.7008 39.6653 24.703C39.6855 24.7052 39.7031 24.7433 39.6921 24.7587C39.6855 24.7679 39.6807 24.7799 39.6719 24.7865C39.6199 24.8243 39.569 24.8642 39.5141 24.8975C39.339 25.0041 39.1629 25.1084 38.9864 25.2128C38.8857 25.2725 38.7842 25.3307 38.6824 25.3886C38.6213 25.4234 38.5557 25.4494 38.4872 25.4659C38.4565 25.4732 38.4264 25.4651 38.4052 25.445C38.31 25.3545 38.2569 25.2494 38.3012 25.1143C38.3356 25.0085 38.3704 24.903 38.4045 24.7972C38.4349 24.7027 38.4649 24.6078 38.4942 24.5126C38.5022 24.4859 38.4719 24.4529 38.4433 24.4577C38.4089 24.4635 38.373 24.4676 38.3415 24.4815C38.2558 24.5192 38.1705 24.558 38.0884 24.6031C37.7142 24.8092 37.337 25.0103 36.9693 25.2282C36.8235 25.3146 36.6701 25.3882 36.5196 25.467C36.4907 25.4823 36.4592 25.4721 36.4449 25.4439C36.3434 25.2483 36.3387 25.2487 36.4463 25.0568C36.469 25.0161 36.495 24.9766 36.5218 24.9381C36.7085 24.6679 36.9136 24.4123 37.137 24.1709C37.233 24.0673 37.3417 23.9787 37.4523 23.8919C37.4659 23.8813 37.4813 23.8695 37.4974 23.8655C37.5131 23.8618 37.5344 23.8622 37.5472 23.8703C37.5929 23.8988 37.6087 23.9721 37.5783 24.0087C37.556 24.0358 37.5322 24.0614 37.5069 24.086C37.3395 24.2508 37.1876 24.4284 37.0447 24.6148C36.9378 24.7543 36.8276 24.8909 36.7192 25.0293C36.7042 25.0487 36.7009 25.0703 36.7107 25.0755C36.7291 25.0846 36.743 25.0747 36.7573 25.0663C36.9144 24.9755 37.0711 24.8839 37.2286 24.7935C37.4721 24.6532 37.7189 24.5188 37.976 24.4042C38.0562 24.3687 38.1386 24.3387 38.2203 24.3061C38.2865 24.2793 38.3569 24.2735 38.4268 24.2672C38.5162 24.2596 38.5876 24.3039 38.6209 24.3885C38.6641 24.4994 38.6879 24.6126 38.6465 24.7309C38.6019 24.8579 38.5597 24.9858 38.5169 25.1132C38.5096 25.1352 38.503 25.1579 38.5004 25.1806C38.4993 25.1894 38.5107 25.1993 38.5184 25.2124H38.5169Z" fill="black"/>
<path fill-rule="evenodd" clip-rule="evenodd" d="M17.1438 25.0095C17.1566 24.9897 17.1713 24.9714 17.1815 24.9505C17.2822 24.7499 17.4174 24.5744 17.5657 24.4074C17.7488 24.2013 17.9469 24.0108 18.1593 23.8351C18.1816 23.8167 18.2073 23.8021 18.2329 23.7886C18.2618 23.7732 18.3091 23.7834 18.3303 23.8069C18.3655 23.8464 18.397 23.8885 18.4087 23.9416C18.3893 23.987 18.3475 24.0116 18.3138 24.0434C18.2032 24.1482 18.0901 24.25 17.982 24.3569C17.7821 24.5554 17.6059 24.7744 17.4419 25.0029C17.4012 25.0597 17.3723 25.1245 17.3386 25.186C17.3276 25.2062 17.3456 25.2387 17.3668 25.2362C17.413 25.2307 17.4609 25.2292 17.5045 25.2153C17.6048 25.1834 17.7041 25.1479 17.8015 25.1087C18.0677 25.0018 18.3241 24.8733 18.5823 24.7484C18.6559 24.7129 18.7317 24.681 18.8068 24.6491C18.8225 24.6426 18.8404 24.6411 18.8577 24.6385C18.8862 24.6345 18.9269 24.6708 18.9294 24.7033C18.9302 24.714 18.9294 24.7286 18.9228 24.7356C18.8913 24.7696 18.861 24.8066 18.824 24.8337C18.4816 25.0835 18.115 25.2886 17.7125 25.4251C17.6294 25.4533 17.5444 25.4739 17.4551 25.4764C17.3723 25.479 17.306 25.4508 17.2591 25.3823C17.2258 25.334 17.1936 25.2853 17.1625 25.2358C17.1299 25.1842 17.1145 25.1303 17.139 25.0692C17.1471 25.0487 17.1453 25.0238 17.1475 25.0018C17.1475 25.0025 17.1438 25.008 17.1438 25.008V25.0095Z" fill="black"/>
<path fill-rule="evenodd" clip-rule="evenodd" d="M27.0582 25.0095C27.071 24.9897 27.0857 24.9714 27.0959 24.9505C27.1966 24.7499 27.3318 24.5744 27.4801 24.4074C27.6632 24.2013 27.8613 24.0108 28.0737 23.8351C28.0961 23.8167 28.1217 23.8021 28.147 23.7886C28.1759 23.7732 28.2231 23.7834 28.2444 23.8069C28.2795 23.8464 28.311 23.8885 28.3227 23.9416C28.3033 23.987 28.2616 24.0116 28.2279 24.0434C28.1173 24.1482 28.0041 24.25 27.8961 24.3569C27.6962 24.5554 27.52 24.7744 27.3559 25.0029C27.3153 25.0597 27.2864 25.1245 27.2527 25.186C27.2417 25.2062 27.2596 25.2387 27.2809 25.2362C27.327 25.2307 27.375 25.2292 27.4186 25.2153C27.5189 25.1834 27.6182 25.1479 27.7156 25.1087C27.9818 25.0018 28.2381 24.8733 28.4963 24.7484C28.5699 24.7129 28.6457 24.681 28.7208 24.6491C28.7366 24.6426 28.7545 24.6411 28.7717 24.6385C28.8003 24.6345 28.8409 24.6708 28.8435 24.7033C28.8442 24.714 28.8435 24.7286 28.8369 24.7356C28.8054 24.7696 28.775 24.8066 28.738 24.8337C28.3956 25.0835 28.029 25.2886 27.6266 25.4251C27.5434 25.4533 27.4585 25.4739 27.3691 25.4764C27.2864 25.479 27.2201 25.4508 27.1732 25.3823C27.1399 25.334 27.1077 25.2853 27.0765 25.2358C27.0439 25.1842 27.0286 25.1303 27.0531 25.0692C27.0611 25.0487 27.059 25.0238 27.0615 25.0018C27.0615 25.0025 27.0579 25.008 27.0579 25.008L27.0582 25.0095Z" fill="black"/>
<path fill-rule="evenodd" clip-rule="evenodd" d="M35.5612 23.4439C35.5011 23.4483 35.4487 23.3974 35.4557 23.3568C35.4586 23.3403 35.4649 23.3209 35.4762 23.3095C35.5128 23.2722 35.5513 23.2363 35.5916 23.203C35.749 23.0718 35.8812 22.9162 36.0186 22.7657C36.0402 22.7419 36.0391 22.7115 36.0248 22.684C36.0094 22.6536 36.0142 22.628 36.0387 22.6064C36.0603 22.587 36.083 22.569 36.1057 22.5515C36.1171 22.5427 36.1431 22.5471 36.1526 22.5599C36.194 22.6159 36.2357 22.6716 36.2749 22.7291C36.2962 22.7602 36.2921 22.7968 36.2782 22.8298C36.2669 22.8565 36.2526 22.8818 36.2365 22.906C36.142 23.0495 36.0167 23.1623 35.8765 23.2583C35.7901 23.3176 35.6996 23.371 35.6102 23.4252C35.5912 23.437 35.5674 23.4414 35.5615 23.4436L35.5612 23.4439Z" fill="black"/>
<path fill-rule="evenodd" clip-rule="evenodd" d="M19.224 22.7344C19.2347 22.738 19.25 22.738 19.2555 22.7457C19.3009 22.8065 19.3449 22.868 19.3877 22.9303C19.402 22.9508 19.3987 22.9761 19.3877 22.9973C19.3661 23.0387 19.3453 23.0808 19.3189 23.1189C19.231 23.2456 19.1175 23.347 18.9915 23.4338C18.9003 23.4968 18.8036 23.5529 18.7095 23.6115C18.6996 23.6177 18.6879 23.6202 18.6773 23.625C18.6418 23.6407 18.5777 23.6188 18.5649 23.5693C18.5586 23.5455 18.5575 23.5214 18.5726 23.5027C18.5945 23.4756 18.6191 23.4496 18.6462 23.428C18.8161 23.2917 18.9589 23.1288 19.1054 22.9695C19.1373 22.9347 19.1427 22.8995 19.1255 22.8571C19.1127 22.8252 19.1292 22.8007 19.1519 22.7802C19.1731 22.7611 19.1918 22.7369 19.224 22.7344Z" fill="black"/>
<path fill-rule="evenodd" clip-rule="evenodd" d="M29.3107 22.9629C29.3082 22.9742 29.3078 22.9867 29.3027 22.9966C29.2811 23.0379 29.2606 23.0804 29.2342 23.1185C29.1467 23.2452 29.0331 23.347 28.9075 23.4342C28.8163 23.4975 28.72 23.5532 28.6255 23.6122C28.6157 23.6184 28.6039 23.6213 28.5933 23.6257C28.5505 23.644 28.4959 23.618 28.4802 23.5726C28.4721 23.5488 28.4717 23.5243 28.4864 23.5056C28.508 23.4781 28.5322 23.4521 28.5593 23.4305C28.7292 23.2943 28.8724 23.1317 29.0185 22.972C29.0496 22.938 29.0584 22.9032 29.0405 22.86C29.0273 22.8285 29.0419 22.8032 29.065 22.7827C29.0826 22.7673 29.1001 22.7519 29.1203 22.7402C29.1357 22.7311 29.1547 22.7325 29.1686 22.7457C29.2247 22.7984 29.2613 22.8655 29.3012 22.9299C29.3071 22.9394 29.3074 22.9522 29.3104 22.9632L29.3107 22.9629Z" fill="black"/>
<path fill-rule="evenodd" clip-rule="evenodd" d="M8.98014 24.3125C8.43375 24.3777 7.9152 24.5194 7.40213 24.685C7.18497 24.7553 6.96964 24.83 6.75357 24.9032C6.71769 24.9153 6.68509 24.9142 6.6547 24.8904C6.23648 24.5601 5.79081 24.2664 5.37735 23.9295C5.20926 23.7925 5.0452 23.6512 4.89542 23.494C4.78629 23.3794 4.68448 23.2586 4.60208 23.1227C4.56546 23.0623 4.53543 22.9997 4.52005 22.9297C4.50943 22.8821 4.51236 22.8371 4.52665 22.7917C4.55155 22.7122 4.5933 22.6422 4.6453 22.5782C4.70829 22.5005 4.77713 22.4284 4.85807 22.3694C4.95255 22.3006 5.04667 22.2303 5.14591 22.1684C5.49344 21.9505 5.85416 21.7582 6.22989 21.5923C6.92203 21.2865 7.63651 21.0474 8.36893 20.8599C8.6641 20.7845 8.96292 20.7277 9.26541 20.6922C9.41666 20.6742 9.56754 20.6548 9.71915 20.6405C9.98319 20.616 10.2454 20.6314 10.5065 20.6764C10.5526 20.6845 10.5988 20.6922 10.6446 20.7021C10.731 20.7204 10.8141 20.7471 10.8885 20.7965C10.9214 20.8185 10.9324 20.8496 10.9306 20.887C10.928 20.9471 10.9053 21.0013 10.8778 21.0529C10.8365 21.1309 10.7834 21.2005 10.7193 21.262C10.6046 21.3715 10.4809 21.4689 10.3512 21.5601C9.92276 21.8618 9.45731 22.0929 8.97208 22.287C8.59159 22.4394 8.20487 22.5734 7.80899 22.6803C7.48636 22.7675 7.15934 22.8312 6.82682 22.8656C6.7045 22.8784 6.58146 22.8836 6.45877 22.8869C6.37088 22.8894 6.28336 22.8817 6.1995 22.8503C6.1724 22.8404 6.1431 22.836 6.11417 22.8327C6.10648 22.8319 6.0911 22.8437 6.08927 22.8517C6.06913 22.9458 6.09989 23.0249 6.168 23.0898C6.22953 23.148 6.3057 23.1791 6.38773 23.1923C6.50345 23.2106 6.61954 23.2183 6.73746 23.2095C7.05423 23.1853 7.36295 23.1238 7.66764 23.0367C8.02762 22.9337 8.38688 22.8283 8.73771 22.6975C8.7996 22.6745 8.86039 22.6646 8.92594 22.6649C9.22477 22.6664 9.52323 22.6595 9.82169 22.6474C9.9971 22.6404 10.1729 22.6466 10.3487 22.6488C10.3893 22.6492 10.43 22.6565 10.4706 22.6613C10.4849 22.6631 10.4911 22.6723 10.4897 22.6851C10.4889 22.6906 10.4897 22.6979 10.4864 22.7016C10.4673 22.7235 10.4479 22.7459 10.4274 22.7664C9.95206 23.2439 9.4932 23.7365 9.04789 24.2419C9.02848 24.2638 9.0076 24.2843 8.98014 24.3129V24.3125Z" fill="white"/>
<path fill-rule="evenodd" clip-rule="evenodd" d="M3.31162 27.5938C3.24863 27.5879 3.1893 27.5872 3.13254 27.5758C3.02048 27.5531 2.99741 27.5491 3.0582 27.4308C3.10947 27.3312 3.17173 27.2404 3.24717 27.1576C3.36582 27.0276 3.49582 26.9104 3.63352 26.8009C3.89536 26.5933 4.17734 26.4157 4.46884 26.2538C4.92881 25.9982 5.40012 25.7653 5.87986 25.5489C6.0875 25.4551 6.2966 25.3647 6.50571 25.2738C6.55368 25.253 6.60422 25.2372 6.65403 25.2204C6.67343 25.2138 6.702 25.2281 6.71262 25.2482C6.74887 25.3156 6.77561 25.3866 6.78513 25.4628C6.79941 25.5741 6.79209 25.6836 6.75583 25.7917C6.71262 25.9213 6.64597 26.0367 6.55954 26.141C6.45481 26.2677 6.33469 26.3787 6.20249 26.4768C5.94834 26.6654 5.67844 26.8288 5.3928 26.9654C5.01267 27.1474 4.62082 27.2994 4.21836 27.4235C3.96054 27.503 3.69687 27.5531 3.42917 27.5839C3.38852 27.5887 3.34751 27.5905 3.31125 27.5931L3.31162 27.5938Z" fill="white"/>
<path fill-rule="evenodd" clip-rule="evenodd" d="M12.6429 24.6133L12.625 24.5977C12.6272 24.5977 12.6305 24.5977 12.6312 24.5984C12.6337 24.602 12.6352 24.6064 12.6381 24.6108C12.6392 24.6115 12.6429 24.613 12.6429 24.613V24.6133Z" fill="white"/>
<path fill-rule="evenodd" clip-rule="evenodd" d="M29.3752 30.1243C29.3686 30.1236 29.3393 30.121 29.3115 30.1144C29.3038 30.1126 29.2939 30.0969 29.295 30.0892C29.2983 30.0668 29.3027 30.0427 29.3133 30.0232C29.4283 29.8127 29.5422 29.6014 29.7147 29.4293C29.7601 29.3838 29.8022 29.3348 29.8458 29.2875C30.0633 29.0495 30.2918 28.8228 30.5372 28.6141C31.0766 28.1552 31.6285 27.7117 32.2148 27.3129C32.6696 27.0038 33.1355 26.7116 33.6086 26.4311C33.7295 26.3597 33.8514 26.2901 33.9734 26.2209C33.981 26.2165 33.9968 26.2194 34.0052 26.2249C34.0092 26.2275 34.0074 26.245 34.003 26.2531C33.9946 26.2685 33.9832 26.282 33.9723 26.2956C33.2988 27.1386 32.5759 27.9347 31.7614 28.6452C31.404 28.9568 31.0327 29.2516 30.6511 29.5333C30.4295 29.6966 30.197 29.8438 29.9483 29.9628C29.8429 30.0134 29.7363 30.061 29.6224 30.091C29.5481 30.1104 29.4741 30.1232 29.3752 30.1247V30.1243Z" fill="white"/>
<path fill-rule="evenodd" clip-rule="evenodd" d="M13.9173 25.3022C13.9092 25.2989 13.8994 25.2974 13.899 25.2945C13.8972 25.2835 13.8942 25.2692 13.8994 25.2612C13.9521 25.1755 14.0209 25.1041 14.0997 25.0422C14.3216 24.8679 14.5607 24.7217 14.8193 24.6082C14.9808 24.5372 15.1522 24.4987 15.3247 24.4661C15.3587 24.4595 15.3946 24.4625 15.4294 24.461C15.4444 24.4603 15.4536 24.4672 15.4521 24.4793C15.4506 24.4896 15.4451 24.4998 15.44 24.509C15.4374 24.5137 15.432 24.5178 15.4272 24.5207C15.128 24.7258 14.8277 24.9294 14.504 25.0953C14.3948 25.1513 14.2853 25.2073 14.1685 25.2469C14.1077 25.2674 14.0458 25.2853 13.9836 25.3011C13.962 25.3066 13.9374 25.3018 13.9169 25.3018L13.9173 25.3022Z" fill="white"/>
<path fill-rule="evenodd" clip-rule="evenodd" d="M23.8393 25.3035C23.8272 25.2943 23.8144 25.2896 23.8118 25.2815C23.8089 25.272 23.8111 25.2566 23.8173 25.2493C23.8664 25.1914 23.9103 25.1266 23.9682 25.0794C24.2787 24.8256 24.6153 24.6168 25.0082 24.5143C25.1152 24.4865 25.2228 24.4546 25.3353 24.4572C25.3452 24.4572 25.355 24.4641 25.3646 24.4689C25.3745 24.4737 25.3638 24.4997 25.3466 24.5132C25.3419 24.5169 25.3378 24.5213 25.3331 24.5242C25.0035 24.7468 24.6743 24.9706 24.3146 25.1442C24.1931 25.2028 24.0696 25.2551 23.9389 25.2892C23.9056 25.298 23.8701 25.2995 23.8389 25.3039L23.8393 25.3035Z" fill="white"/>
<path fill-rule="evenodd" clip-rule="evenodd" d="M30.0957 25.6246C30.0957 25.6363 30.0935 25.6484 30.0957 25.6597C30.1206 25.7791 30.073 25.8776 30.0078 25.971C29.9569 26.0435 29.8969 26.108 29.8251 26.1596C29.7398 26.2211 29.6544 26.2841 29.5629 26.335C29.3483 26.4544 29.1311 26.5694 28.9129 26.6822C28.7202 26.7814 28.5181 26.8587 28.3134 26.9297C28.1962 26.9704 28.0768 26.9938 27.9549 27.0092C27.9453 27.0103 27.9311 27.0041 27.9259 26.9964C27.9208 26.9887 27.9208 26.9737 27.9245 26.9642C27.9307 26.9481 27.9398 26.9323 27.9508 26.9188C27.9878 26.8737 28.0241 26.8276 28.0647 26.7855C28.1621 26.6837 28.272 26.5961 28.3848 26.5119C28.7232 26.2596 29.078 26.0329 29.4527 25.8381C29.6032 25.7597 29.757 25.6879 29.9071 25.6088C29.9727 25.5744 30.0291 25.5784 30.0855 25.6235C30.0899 25.6271 30.0961 25.6279 30.102 25.6304L30.0965 25.6246H30.0957Z" fill="white"/>
<path fill-rule="evenodd" clip-rule="evenodd" d="M19.0912 25.4121C19.0561 25.4121 19.0209 25.4136 18.9861 25.4121C18.9085 25.4077 18.8865 25.3645 18.9308 25.2942C18.9649 25.24 19.0026 25.1873 19.0455 25.14C19.144 25.032 19.2516 24.9328 19.3703 24.8471C19.4743 24.772 19.5816 24.7009 19.6893 24.6303C19.7577 24.5852 19.8321 24.5515 19.9097 24.5244C19.987 24.4977 20.0624 24.4658 20.139 24.4376C20.188 24.4197 20.2144 24.4314 20.2364 24.4801C20.2605 24.5332 20.2843 24.5867 20.3063 24.6405C20.3246 24.6863 20.3221 24.7313 20.2968 24.7753C20.2554 24.8463 20.2056 24.9108 20.1478 24.9694C20.0525 25.0657 19.9441 25.1441 19.8259 25.2096C19.6559 25.3041 19.4736 25.3652 19.2831 25.4011C19.2205 25.4129 19.1553 25.4132 19.0912 25.4187C19.0912 25.4165 19.0912 25.4147 19.0912 25.4125V25.4121Z" fill="white"/>
</svg>
