<svg width="55" height="35" viewBox="0 0 55 35" fill="none" xmlns="http://www.w3.org/2000/svg">
<g clip-path="url(#clip0_401_731)">
<path d="M23.33 3.96L25.65 8.75L25.67 8.79L27.24 12.04L32.98 23.91L34.49 27.03L36.65 31.49C37.01 32.31 37.53 32.9 38.21 33.26C38.89 33.62 39.77 33.8 40.85 33.8V34.88H21.71V33.8C23.51 33.8 24.85 33.6 25.73 33.19C26.61 32.78 27.05 32.25 27.05 31.6C27.05 31.37 27.01 31.14 26.94 30.92L25.14 27.2L24.62 26.13L23.03 22.85L16.91 10.21L15.77 7.86L14.69 5.63L13.61 3.4C13.25 2.58 12.73 1.99 12.05 1.63C11.37 1.27 8.56 1.09 7.48 1.09V0H28.55V1.08C26.75 1.08 25.41 1.28 24.53 1.69C23.65 2.1 23.21 2.63 23.21 3.28C23.21 3.51 23.25 3.74 23.32 3.96H23.33ZM46.39 5.43C46.62 4.93 46.74 4.35 46.82 3.74C46.82 2.1 45.5 1.22 42.85 1.09C42.62 1.08 41.58 1.07 41.33 1.07V0H54.15V1.08C53.23 1.08 52.42 1.28 51.72 1.69C51.02 2.1 50.36 2.99 49.71 4.35C46 12.07 40.98 22.12 37.18 29.76L36.15 27.35C39.13 20.81 43.45 11.98 46.4 5.42L46.39 5.43ZM9.84 24.83L9.38 25.85L7.75 29.44C7.54 29.95 7.4 30.52 7.32 31.13C7.32 32.72 8.57 33.6 11.08 33.76C11.37 33.78 12.36 33.79 12.68 33.79V34.87H0V33.79C0.92 33.79 1.73 33.59 2.43 33.18C3.13 32.77 3.8 31.88 4.44 30.52L11.44 16H18.02L18.58 17.17H13.33L10.75 22.83L9.84 24.83Z" fill="#231F20"/>
</g>
<defs>
<clipPath id="clip0_401_731">
<rect width="54.15" height="34.87" fill="white"/>
</clipPath>
</defs>
</svg>
