<svg width="67" height="30" viewBox="0 0 67 30" fill="none" xmlns="http://www.w3.org/2000/svg">
<path d="M4.59302 14.1568C7.37923 14.1568 8.92931 13.058 8.92931 11.2136C8.92931 10.4484 8.61537 9.76166 8.00711 9.40848C7.39885 9.07492 6.69249 8.93757 5.02469 8.76098C3.61196 8.60401 2.67014 8.46666 2.17961 8.21159C1.68908 7.97613 1.55173 7.4856 1.55173 7.01469C1.55173 5.85704 2.76825 5.07219 4.61264 5.07219C6.59438 5.07219 7.5362 5.89628 7.5362 7.60333H8.53688C8.53688 5.38613 7.32037 4.14999 4.5734 4.14999C2.10113 4.14999 0.492188 5.32727 0.492188 7.07355C0.492188 7.77992 0.747263 8.42742 1.27704 8.80022C1.84605 9.19265 2.80749 9.40848 4.43605 9.56545C5.92726 9.7028 6.7906 9.84015 7.22226 10.056C7.69317 10.3111 7.86976 10.7427 7.86976 11.2529C7.86976 12.489 6.73173 13.2346 4.59302 13.2346C2.37582 13.2346 1.47325 12.3124 1.47325 10.7623H0.492188C0.492188 12.7441 1.57135 14.1568 4.59302 14.1568Z" fill="white"/>
<path d="M13.7843 13.9998H15.0401L17.9048 5.68045H17.9636L20.7695 13.9998H22.0841L25.0076 4.30696H23.9677L21.4366 12.8618H21.3973L18.513 4.30696H17.4731L14.5103 12.8618H14.4711L11.9988 4.30696H10.8411L13.7843 13.9998Z" fill="white"/>
<path d="M41.6833 14.0587C42.3701 14.0587 42.9783 13.9214 43.253 13.8233V12.9011C43.0176 12.9795 42.3897 13.1169 41.7618 13.1169C40.2117 13.1169 39.6231 12.1555 39.6231 10.5269V5.24878H43.3119V4.30696H39.6231V2.10939H38.7009L38.6616 3.69871C38.642 4.16962 38.5243 4.30696 38.2496 4.30696H36.8761V5.24878H38.5635V10.5858C38.5635 12.6852 39.5054 14.0587 41.6833 14.0587Z" fill="white"/>
<path d="M49.7965 14.1568C52.3276 14.1568 54.1132 12.6656 54.1132 10.2522H53.1321C53.1125 12.077 51.7194 13.1954 49.8161 13.1954C47.697 13.1954 46.2451 11.6649 46.2451 9.1534C46.2451 6.64189 47.7363 5.11143 49.9339 5.11143C51.739 5.11143 53.0732 6.24946 53.0732 8.09386H54.0739C54.0739 5.66083 52.3473 4.14999 49.9142 4.14999C47.0692 4.14999 45.1855 6.05325 45.1855 9.1534C45.1855 12.2536 47.0299 14.1568 49.7965 14.1568Z" fill="white"/>
<path d="M57.3381 13.9998H58.3976V9.1534C58.3976 6.5634 60.0066 5.11143 62.3807 5.11143C64.5783 5.11143 65.7163 6.22984 65.7163 8.19196V13.9998H66.7759V7.99575C66.7759 5.56272 65.265 4.14999 62.675 4.14999C60.3597 4.14999 58.9078 5.24878 58.378 7.03431H58.3584C58.3584 6.5634 58.3976 5.46462 58.3976 4.95446V0.402344H57.3381V13.9998Z" fill="white"/>
<path d="M4.59302 29.7545C7.37923 29.7545 8.92931 28.6557 8.92931 26.8113C8.92931 26.0461 8.61537 25.3593 8.00711 25.0061C7.39885 24.6726 6.69249 24.5352 5.02469 24.3586C3.61196 24.2017 2.67014 24.0643 2.17961 23.8092C1.68908 23.5738 1.55173 23.0833 1.55173 22.6123C1.55173 21.4547 2.76825 20.6698 4.61264 20.6698C6.59438 20.6698 7.5362 21.4939 7.5362 23.201H8.53688C8.53688 20.9838 7.32037 19.7477 4.5734 19.7477C2.10113 19.7477 0.492188 20.9249 0.492188 22.6712C0.492188 23.3776 0.747263 24.0251 1.27704 24.3979C1.84605 24.7903 2.80749 25.0061 4.43605 25.1631C5.92726 25.3005 6.7906 25.4378 7.22226 25.6536C7.69317 25.9087 7.86976 26.3404 7.86976 26.8505C7.86976 28.0867 6.73173 28.8323 4.59302 28.8323C2.37582 28.8323 1.47325 27.9101 1.47325 26.36H0.492188C0.492188 28.3417 1.57135 29.7545 4.59302 29.7545Z" fill="white"/>
<path d="M13.7843 29.5975H15.0401L17.9048 21.2781H17.9636L20.7695 29.5975H22.0841L25.0076 19.9046H23.9677L21.4366 28.4595H21.3973L18.513 19.9046H17.4731L14.5103 28.4595H14.4711L11.9988 19.9046H10.8411L13.7843 29.5975Z" fill="white"/>
<path d="M41.6833 29.6564C42.3701 29.6564 42.9783 29.519 43.253 29.4209V28.4987C43.0176 28.5772 42.3897 28.7145 41.7618 28.7145C40.2117 28.7145 39.6231 27.7531 39.6231 26.1245V20.8464H43.3119V19.9046H39.6231V17.707H38.7009L38.6616 19.2964C38.642 19.7673 38.5243 19.9046 38.2496 19.9046H36.8761V20.8464H38.5635V26.1834C38.5635 28.2829 39.5054 29.6564 41.6833 29.6564Z" fill="white"/>
<path d="M49.7965 29.7545C52.3276 29.7545 54.1132 28.2633 54.1132 25.8498H53.1321C53.1125 27.6746 51.7194 28.793 49.8161 28.793C47.697 28.793 46.2451 27.2626 46.2451 24.7511C46.2451 22.2395 47.7363 20.7091 49.9339 20.7091C51.739 20.7091 53.0732 21.8471 53.0732 23.6915H54.0739C54.0739 21.2585 52.3473 19.7477 49.9142 19.7477C47.0692 19.7477 45.1855 21.6509 45.1855 24.7511C45.1855 27.8512 47.0299 29.7545 49.7965 29.7545Z" fill="white"/>
<path d="M57.3381 29.5975H58.3976V24.7511C58.3976 22.1611 60.0066 20.7091 62.3807 20.7091C64.5783 20.7091 65.7163 21.8275 65.7163 23.7896V29.5975H66.7759V23.5934C66.7759 21.1604 65.265 19.7477 62.675 19.7477C60.3597 19.7477 58.9078 20.8464 58.378 22.632H58.3584C58.3584 22.1611 58.3976 21.0623 58.3976 20.5521V16H57.3381V29.5975Z" fill="white"/>
<path d="M35.1238 6.34619V26.3207C35.1238 28.2359 33.4926 29.788 31.4799 29.788C29.4671 29.788 27.8359 28.2359 27.8359 26.3207V6.34619C27.8359 4.43101 29.4671 2.87891 31.4799 2.87891C33.4926 2.87891 35.1238 4.43101 35.1238 6.34619Z" fill="url(#paint0_linear_237_126)"/>
<path d="M32.5322 9.01548C33.9402 8.44205 34.6167 6.8358 34.0432 5.42784C33.4698 4.01987 31.8636 3.34335 30.4556 3.91678C29.0476 4.49022 28.3711 6.09646 28.9445 7.50443C29.518 8.91239 31.1242 9.58891 32.5322 9.01548Z" fill="#EEE9E3"/>
<defs>
<linearGradient id="paint0_linear_237_126" x1="27.8359" y1="16.3343" x2="35.1238" y2="16.3343" gradientUnits="userSpaceOnUse">
<stop stop-color="#141414"/>
<stop offset="1" stop-color="#141414"/>
</linearGradient>
</defs>
</svg>
